<svg width="32" height="32" viewBox="0 0 32 32" fill="none" xmlns="http://www.w3.org/2000/svg">
<path opacity="0.4" d="M32 2.28518V29.7148C32 30.9774 30.9774 32 29.7148 32H2.28517C1.02257 32 0 30.9774 0 29.7148V2.28518C0 1.02258 1.02257 0 2.28517 0H29.7148C30.9774 0 32 1.02258 32 2.28518ZM9.14071 11.4284H4.56785V27.4296H9.14071V11.4284ZM9.71325 6.85804C9.71325 5.28041 8.43316 4.00031 6.85553 4.00031C5.27791 4.00031 3.99781 5.28041 3.99781 6.85804C3.99781 8.43566 5.27791 9.71576 6.85553 9.71576C8.43316 9.71576 9.71325 8.43566 9.71325 6.85804ZM27.4271 18.949C27.4271 13.9211 25.7595 10.9709 20.8891 10.9709C18.824 10.9709 16.8963 12.0009 15.7462 13.7136V11.4284H11.4259V27.4296H15.9987V19.9541C15.8762 18.8565 16.2163 17.7589 16.9363 16.9238C17.6564 16.0863 18.6915 15.5862 19.794 15.5437C22.4468 15.5437 22.8568 18.1489 22.8568 19.9566V27.4321H27.4296V18.9515L27.4271 18.949Z" fill="white"/>
</svg>
