<svg width="220" height="36" viewBox="0 0 220 36" fill="none" xmlns="http://www.w3.org/2000/svg">
<g opacity="0.4">
<path d="M15.6298 21.3437C17.0305 21.3437 18.1659 20.1969 18.1659 18.7822C18.1659 17.3675 17.0305 16.2207 15.6298 16.2207C14.2292 16.2207 13.0938 17.3675 13.0938 18.7822C13.0938 20.1969 14.2292 21.3437 15.6298 21.3437Z" fill="white"/>
<path d="M10.8007 21.0731C12.0537 21.0731 13.0694 20.0472 13.0694 18.7817C13.0694 17.5161 12.0537 16.4902 10.8007 16.4902C9.54772 16.4902 8.53198 17.5161 8.53198 18.7817C8.53198 20.0472 9.54772 21.0731 10.8007 21.0731Z" fill="white"/>
<path d="M5.97155 20.5016C6.91128 20.5016 7.67308 19.7322 7.67308 18.783C7.67308 17.8339 6.91128 17.0645 5.97155 17.0645C5.03182 17.0645 4.27002 17.8339 4.27002 18.783C4.27002 19.7322 5.03182 20.5016 5.97155 20.5016Z" fill="white"/>
<path d="M1.14246 19.9367C1.77342 19.9367 2.28491 19.4201 2.28491 18.7828C2.28491 18.1455 1.77342 17.6289 1.14246 17.6289C0.511495 17.6289 0 18.1455 0 18.7828C0 19.4201 0.511495 19.9367 1.14246 19.9367Z" fill="white"/>
<path d="M20.4428 21.0731C21.6958 21.0731 22.7115 20.0472 22.7115 18.7817C22.7115 17.5161 21.6958 16.4902 20.4428 16.4902C19.1898 16.4902 18.1741 17.5161 18.1741 18.7817C18.1741 20.0472 19.1898 21.0731 20.4428 21.0731Z" fill="white"/>
<path d="M25.2718 20.5016C26.2116 20.5016 26.9734 19.7322 26.9734 18.783C26.9734 17.8339 26.2116 17.0645 25.2718 17.0645C24.3321 17.0645 23.5703 17.8339 23.5703 18.783C23.5703 19.7322 24.3321 20.5016 25.2718 20.5016Z" fill="white"/>
<path d="M30.101 19.9367C30.7319 19.9367 31.2434 19.4201 31.2434 18.7828C31.2434 18.1455 30.7319 17.6289 30.101 17.6289C29.47 17.6289 28.9585 18.1455 28.9585 18.7828C28.9585 19.4201 29.47 19.9367 30.101 19.9367Z" fill="white"/>
<path d="M15.6217 10.7457C16.5614 10.7457 17.3232 9.97631 17.3232 9.02717C17.3232 8.07802 16.5614 7.30859 15.6217 7.30859C14.682 7.30859 13.9202 8.07802 13.9202 9.02717C13.9202 9.97631 14.682 10.7457 15.6217 10.7457Z" fill="white"/>
<path d="M10.7925 10.3375C11.5085 10.3375 12.0889 9.75129 12.0889 9.02814C12.0889 8.30498 11.5085 7.71875 10.7925 7.71875C10.0765 7.71875 9.49609 8.30498 9.49609 9.02814C9.49609 9.75129 10.0765 10.3375 10.7925 10.3375Z" fill="white"/>
<path d="M5.96335 9.93592C6.46006 9.93592 6.86273 9.52922 6.86273 9.02753C6.86273 8.52584 6.46006 8.11914 5.96335 8.11914C5.46663 8.11914 5.06396 8.52584 5.06396 9.02753C5.06396 9.52922 5.46663 9.93592 5.96335 9.93592Z" fill="white"/>
<path d="M15.6217 5.30389C16.2527 5.30389 16.7642 4.78727 16.7642 4.14999C16.7642 3.51271 16.2527 2.99609 15.6217 2.99609C14.9907 2.99609 14.4792 3.51271 14.4792 4.14999C14.4792 4.78727 14.9907 5.30389 15.6217 5.30389Z" fill="white"/>
<path d="M15.6217 16.1961C16.8747 16.1961 17.8904 15.1702 17.8904 13.9047C17.8904 12.6392 16.8747 11.6133 15.6217 11.6133C14.3688 11.6133 13.353 12.6392 13.353 13.9047C13.353 15.1702 14.3688 16.1961 15.6217 16.1961Z" fill="white"/>
<path d="M10.7925 15.73C11.7904 15.73 12.5993 14.9129 12.5993 13.905C12.5993 12.8971 11.7904 12.0801 10.7925 12.0801C9.79456 12.0801 8.9856 12.8971 8.9856 13.905C8.9856 14.9129 9.79456 15.73 10.7925 15.73Z" fill="white"/>
<path d="M5.96347 15.2724C6.71078 15.2724 7.3166 14.6605 7.3166 13.9057C7.3166 13.1509 6.71078 12.5391 5.96347 12.5391C5.21617 12.5391 4.61035 13.1509 4.61035 13.9057C4.61035 14.6605 5.21617 15.2724 5.96347 15.2724Z" fill="white"/>
<path d="M1.14255 14.8129C1.63926 14.8129 2.04193 14.4062 2.04193 13.9045C2.04193 13.4028 1.63926 12.9961 1.14255 12.9961C0.645831 12.9961 0.243164 13.4028 0.243164 13.9045C0.243164 14.4062 0.645831 14.8129 1.14255 14.8129Z" fill="white"/>
<path d="M1.14251 9.49349C1.39758 9.49349 1.60435 9.28464 1.60435 9.02702C1.60435 8.76939 1.39758 8.56055 1.14251 8.56055C0.887439 8.56055 0.680664 8.76939 0.680664 9.02702C0.680664 9.28464 0.887439 9.49349 1.14251 9.49349Z" fill="white"/>
<path d="M10.7927 5.05896C11.2894 5.05896 11.6921 4.65226 11.6921 4.15058C11.6921 3.64889 11.2894 3.24219 10.7927 3.24219C10.296 3.24219 9.89331 3.64889 9.89331 4.15058C9.89331 4.65226 10.296 5.05896 10.7927 5.05896Z" fill="white"/>
<path d="M5.97161 4.61653C6.22668 4.61653 6.43345 4.40769 6.43345 4.15006C6.43345 3.89244 6.22668 3.68359 5.97161 3.68359C5.71654 3.68359 5.50977 3.89244 5.50977 4.15006C5.50977 4.40769 5.71654 4.61653 5.97161 4.61653Z" fill="white"/>
<path d="M20.4507 10.3375C21.1667 10.3375 21.7471 9.75129 21.7471 9.02814C21.7471 8.30498 21.1667 7.71875 20.4507 7.71875C19.7347 7.71875 19.1543 8.30498 19.1543 9.02814C19.1543 9.75129 19.7347 10.3375 20.4507 10.3375Z" fill="white"/>
<path d="M25.28 9.93592C25.7767 9.93592 26.1794 9.52922 26.1794 9.02753C26.1794 8.52584 25.7767 8.11914 25.28 8.11914C24.7833 8.11914 24.3806 8.52584 24.3806 9.02753C24.3806 9.52922 24.7833 9.93592 25.28 9.93592Z" fill="white"/>
<path d="M20.4509 15.73C21.4488 15.73 22.2578 14.9129 22.2578 13.905C22.2578 12.8971 21.4488 12.0801 20.4509 12.0801C19.453 12.0801 18.644 12.8971 18.644 13.905C18.644 14.9129 19.453 15.73 20.4509 15.73Z" fill="white"/>
<path d="M25.2799 15.2724C26.0272 15.2724 26.633 14.6605 26.633 13.9057C26.633 13.1509 26.0272 12.5391 25.2799 12.5391C24.5326 12.5391 23.9268 13.1509 23.9268 13.9057C23.9268 14.6605 24.5326 15.2724 25.2799 15.2724Z" fill="white"/>
<path d="M30.1091 14.8129C30.6058 14.8129 31.0085 14.4062 31.0085 13.9045C31.0085 13.4028 30.6058 12.9961 30.1091 12.9961C29.6124 12.9961 29.2097 13.4028 29.2097 13.9045C29.2097 14.4062 29.6124 14.8129 30.1091 14.8129Z" fill="white"/>
<path d="M30.1091 9.49349C30.3641 9.49349 30.5709 9.28464 30.5709 9.02702C30.5709 8.76939 30.3641 8.56055 30.1091 8.56055C29.854 8.56055 29.6472 8.76939 29.6472 9.02702C29.6472 9.28464 29.854 9.49349 30.1091 9.49349Z" fill="white"/>
<path d="M20.4509 5.05896C20.9476 5.05896 21.3503 4.65226 21.3503 4.15058C21.3503 3.64889 20.9476 3.24219 20.4509 3.24219C19.9542 3.24219 19.5515 3.64889 19.5515 4.15058C19.5515 4.65226 19.9542 5.05896 20.4509 5.05896Z" fill="white"/>
<path d="M25.2719 4.61653C25.527 4.61653 25.7337 4.40769 25.7337 4.15006C25.7337 3.89244 25.527 3.68359 25.2719 3.68359C25.0168 3.68359 24.8101 3.89244 24.8101 4.15006C24.8101 4.40769 25.0168 4.61653 25.2719 4.61653Z" fill="white"/>
<path d="M15.6217 30.2555C16.5614 30.2555 17.3232 29.4861 17.3232 28.5369C17.3232 27.5878 16.5614 26.8184 15.6217 26.8184C14.682 26.8184 13.9202 27.5878 13.9202 28.5369C13.9202 29.4861 14.682 30.2555 15.6217 30.2555Z" fill="white"/>
<path d="M20.4507 29.8473C21.1667 29.8473 21.7471 29.2611 21.7471 28.5379C21.7471 27.8147 21.1667 27.2285 20.4507 27.2285C19.7347 27.2285 19.1543 27.8147 19.1543 28.5379C19.1543 29.2611 19.7347 29.8473 20.4507 29.8473Z" fill="white"/>
<path d="M25.28 29.4457C25.7767 29.4457 26.1794 29.039 26.1794 28.5373C26.1794 28.0356 25.7767 27.6289 25.28 27.6289C24.7833 27.6289 24.3806 28.0356 24.3806 28.5373C24.3806 29.039 24.7833 29.4457 25.28 29.4457Z" fill="white"/>
<path d="M15.6217 34.5695C16.2527 34.5695 16.7642 34.0529 16.7642 33.4156C16.7642 32.7783 16.2527 32.2617 15.6217 32.2617C14.9907 32.2617 14.4792 32.7783 14.4792 33.4156C14.4792 34.0529 14.9907 34.5695 15.6217 34.5695Z" fill="white"/>
<path d="M15.6217 25.952C16.8747 25.952 17.8904 24.9261 17.8904 23.6606C17.8904 22.395 16.8747 21.3691 15.6217 21.3691C14.3688 21.3691 13.353 22.395 13.353 23.6606C13.353 24.9261 14.3688 25.952 15.6217 25.952Z" fill="white"/>
<path d="M20.4509 25.4839C21.4488 25.4839 22.2578 24.6668 22.2578 23.6589C22.2578 22.651 21.4488 21.834 20.4509 21.834C19.453 21.834 18.644 22.651 18.644 23.6589C18.644 24.6668 19.453 25.4839 20.4509 25.4839Z" fill="white"/>
<path d="M25.2799 25.0263C26.0272 25.0263 26.633 24.4144 26.633 23.6596C26.633 22.9048 26.0272 22.293 25.2799 22.293C24.5326 22.293 23.9268 22.9048 23.9268 23.6596C23.9268 24.4144 24.5326 25.0263 25.2799 25.0263Z" fill="white"/>
<path d="M30.1091 24.5687C30.6058 24.5687 31.0085 24.162 31.0085 23.6603C31.0085 23.1587 30.6058 22.752 30.1091 22.752C29.6124 22.752 29.2097 23.1587 29.2097 23.6603C29.2097 24.162 29.6124 24.5687 30.1091 24.5687Z" fill="white"/>
<path d="M30.1091 29.0033C30.3641 29.0033 30.5709 28.7944 30.5709 28.5368C30.5709 28.2792 30.3641 28.0703 30.1091 28.0703C29.854 28.0703 29.6472 28.2792 29.6472 28.5368C29.6472 28.7944 29.854 29.0033 30.1091 29.0033Z" fill="white"/>
<path d="M20.4509 34.3304C20.9476 34.3304 21.3503 33.9237 21.3503 33.4221C21.3503 32.9204 20.9476 32.5137 20.4509 32.5137C19.9542 32.5137 19.5515 32.9204 19.5515 33.4221C19.5515 33.9237 19.9542 34.3304 20.4509 34.3304Z" fill="white"/>
<path d="M25.28 33.89C25.535 33.89 25.7418 33.6811 25.7418 33.4235C25.7418 33.1659 25.535 32.957 25.28 32.957C25.0249 32.957 24.8181 33.1659 24.8181 33.4235C24.8181 33.6811 25.0249 33.89 25.28 33.89Z" fill="white"/>
<path d="M10.7925 29.8473C11.5085 29.8473 12.0889 29.2611 12.0889 28.5379C12.0889 27.8147 11.5085 27.2285 10.7925 27.2285C10.0765 27.2285 9.49609 27.8147 9.49609 28.5379C9.49609 29.2611 10.0765 29.8473 10.7925 29.8473Z" fill="white"/>
<path d="M5.96335 29.4457C6.46006 29.4457 6.86273 29.039 6.86273 28.5373C6.86273 28.0356 6.46006 27.6289 5.96335 27.6289C5.46663 27.6289 5.06396 28.0356 5.06396 28.5373C5.06396 29.039 5.46663 29.4457 5.96335 29.4457Z" fill="white"/>
<path d="M5.96355 33.8822C6.21862 33.8822 6.4254 33.6733 6.4254 33.4157C6.4254 33.1581 6.21862 32.9492 5.96355 32.9492C5.70848 32.9492 5.50171 33.1581 5.50171 33.4157C5.50171 33.6733 5.70848 33.8822 5.96355 33.8822Z" fill="white"/>
<path d="M10.7925 25.4839C11.7904 25.4839 12.5993 24.6668 12.5993 23.6589C12.5993 22.651 11.7904 21.834 10.7925 21.834C9.79456 21.834 8.9856 22.651 8.9856 23.6589C8.9856 24.6668 9.79456 25.4839 10.7925 25.4839Z" fill="white"/>
<path d="M5.96347 25.0263C6.71078 25.0263 7.3166 24.4144 7.3166 23.6596C7.3166 22.9048 6.71078 22.293 5.96347 22.293C5.21617 22.293 4.61035 22.9048 4.61035 23.6596C4.61035 24.4144 5.21617 25.0263 5.96347 25.0263Z" fill="white"/>
<path d="M1.14255 24.5687C1.63926 24.5687 2.04193 24.162 2.04193 23.6603C2.04193 23.1587 1.63926 22.752 1.14255 22.752C0.645831 22.752 0.243164 23.1587 0.243164 23.6603C0.243164 24.162 0.645831 24.5687 1.14255 24.5687Z" fill="white"/>
<path d="M1.14251 29.0033C1.39758 29.0033 1.60435 28.7944 1.60435 28.5368C1.60435 28.2792 1.39758 28.0703 1.14251 28.0703C0.887439 28.0703 0.680664 28.2792 0.680664 28.5368C0.680664 28.7944 0.887439 29.0033 1.14251 29.0033Z" fill="white"/>
<path d="M10.7927 34.3304C11.2894 34.3304 11.6921 33.9237 11.6921 33.4221C11.6921 32.9204 11.2894 32.5137 10.7927 32.5137C10.296 32.5137 9.89331 32.9204 9.89331 33.4221C9.89331 33.9237 10.296 34.3304 10.7927 34.3304Z" fill="white"/>
<path d="M161.783 12.251C160.495 12.251 159.442 12.6683 158.615 13.5031C157.789 14.3378 157.375 15.5981 157.375 17.2839V27.8572H153.899V9.32121H157.375V11.5308C157.481 11.3671 157.57 11.1871 157.683 11.0316C158.769 9.624 160.325 8.92839 162.359 8.92839C163.282 8.92839 164.125 9.09207 164.87 9.41941C165.397 9.64856 165.891 9.99227 166.369 10.4342L164.668 13.413C164.287 13.0039 163.866 12.7093 163.404 12.521C162.942 12.341 162.399 12.251 161.783 12.251ZM145.991 1.56308H145.935L142.515 3.5599V9.32939H137.994V12.5292H142.515V27.8572H145.991V12.521H150.513V9.32121H145.991V1.56308ZM195.619 1.56308H195.579L192.143 3.56808V9.32939H187.622V12.5292H192.143V27.8572H195.619V12.521H200.141V9.32121H195.619V1.56308ZM181.173 19.9354C181.173 21.474 180.784 22.677 180.014 23.5444C179.244 24.4201 178.175 24.8538 176.805 24.8538C175.906 24.8538 175.12 24.6574 174.447 24.2728C173.775 23.8882 173.273 23.3153 172.924 22.5788C172.576 21.8341 172.406 20.9584 172.406 19.9436V9.32939H168.93V20.0991C168.93 21.7113 169.262 23.1271 169.934 24.3546C170.607 25.574 171.539 26.5315 172.738 27.2189C173.937 27.9063 175.29 28.2501 176.813 28.2501C178.337 28.2501 179.714 27.9063 180.889 27.2189C182.064 26.5315 182.979 25.574 183.652 24.3546C184.324 23.1353 184.657 21.7113 184.657 20.0991V9.32939H181.181V19.9436L181.173 19.9354ZM219.06 12.4801C218.444 11.3589 217.602 10.4915 216.532 9.86952C215.463 9.24756 214.231 8.93658 212.845 8.93658C211.46 8.93658 210.204 9.25574 209.102 9.89407C208.267 10.3769 207.571 10.9825 207.02 11.719V0H203.544V27.8572H207.02V17.0548C207.02 16.1218 207.222 15.2871 207.635 14.5588C208.049 13.8304 208.616 13.2576 209.337 12.8402C210.058 12.4228 210.885 12.2182 211.808 12.2182C213.202 12.2182 214.336 12.6765 215.211 13.5849C216.086 14.4933 216.524 15.6554 216.524 17.0548V27.8572H220V16.351C220 14.8943 219.692 13.6095 219.076 12.4883L219.06 12.4801ZM135.215 16.3428V27.8491H131.739V17.0466C131.739 15.639 131.301 14.4851 130.426 13.5767C129.551 12.6683 128.417 12.21 127.023 12.21C126.1 12.21 125.273 12.4146 124.552 12.832C123.831 13.2494 123.264 13.8222 122.851 14.5506C122.437 15.2789 122.235 16.1137 122.235 17.0466V27.8491H118.759V9.32121H122.235V11.7108C122.794 10.9743 123.483 10.3605 124.317 9.88588C125.427 9.24756 126.675 8.92839 128.06 8.92839C129.446 8.92839 130.678 9.28029 131.747 9.98409C132.817 10.6879 133.659 11.6045 134.275 12.7338C134.891 13.8632 135.199 15.0662 135.199 16.3428H135.215ZM53.8737 9.32121H57.3497V27.1125C57.3497 28.8802 56.9445 30.4269 56.1343 31.7527C55.324 33.0784 54.1897 34.1178 52.7312 34.8707C51.2728 35.6236 49.5955 36 47.6914 36C45.7873 36 44.1425 35.6481 42.6922 34.9443C41.2337 34.2405 40.0751 33.2585 39.2 31.9818L41.4363 29.6822C42.1817 30.6479 43.073 31.3762 44.102 31.8836C45.131 32.391 46.3545 32.6447 47.7725 32.6447C49.6523 32.6447 51.1431 32.1455 52.237 31.1389C53.3308 30.1405 53.8818 28.7902 53.8818 27.1043V24.6165C53.2579 25.4758 52.4638 26.1714 51.4834 26.6706C50.3734 27.2435 49.1175 27.5299 47.6995 27.5299C46.0223 27.5299 44.5234 27.1289 43.2026 26.3187C41.8738 25.5167 40.8286 24.4037 40.0508 22.9798C39.281 21.564 38.8921 19.9682 38.8921 18.2005C38.8921 16.4328 39.281 14.8534 40.0508 13.4622C40.8205 12.0709 41.8738 10.9661 43.2026 10.1478C44.5315 9.32939 46.0304 8.92021 47.6995 8.92021C49.1418 8.92021 50.4139 9.20664 51.5239 9.7795C52.48 10.2705 53.2579 10.9498 53.8818 11.7845V9.31303L53.8737 9.32121ZM54.06 18.2578C54.06 17.063 53.8251 16.0155 53.347 15.1153C52.869 14.215 52.2046 13.5194 51.3538 13.012C50.503 12.5047 49.4983 12.251 48.3396 12.251C47.181 12.251 46.1601 12.5047 45.285 13.012C44.4099 13.5194 43.7212 14.2232 43.2188 15.1153C42.7165 16.0155 42.4653 17.0466 42.4653 18.2169C42.4653 19.3871 42.7165 20.4265 43.2188 21.3348C43.7212 22.2432 44.418 22.9552 45.3012 23.4626C46.1925 23.97 47.2134 24.2237 48.3721 24.2237C49.5307 24.2237 50.503 23.9782 51.3619 23.479C52.2208 22.988 52.8852 22.2923 53.3551 21.3921C53.817 20.4919 54.0519 19.4444 54.0519 18.2496L54.06 18.2578ZM113.873 13.3394C114.61 14.7224 114.975 16.2773 114.975 18.0205C114.975 18.2823 114.959 18.5606 114.934 18.8552C114.91 19.158 114.853 19.5017 114.78 19.8863H100.423C100.544 20.5983 100.755 21.2612 101.063 21.8586C101.581 22.8325 102.311 23.5854 103.267 24.1173C104.223 24.6492 105.317 24.9193 106.548 24.9193C107.577 24.9193 108.525 24.7393 109.384 24.371C110.243 24.0027 110.988 23.4626 111.604 22.7343L113.849 25.0339C112.974 26.0732 111.896 26.867 110.624 27.4153C109.352 27.9636 107.991 28.2337 106.548 28.2337C104.717 28.2337 103.072 27.8081 101.606 26.9652C100.139 26.1223 98.9805 24.9684 98.1297 23.5117C97.2789 22.055 96.8576 20.4019 96.8576 18.5606C96.8576 16.7193 97.2789 15.0989 98.1135 13.6422C98.9481 12.1855 100.082 11.0316 101.517 10.1887C102.943 9.34576 104.547 8.92021 106.321 8.92021C108.096 8.92021 109.522 9.31303 110.818 10.0905C112.123 10.8679 113.136 11.9482 113.873 13.3312V13.3394ZM111.572 16.9729C111.475 16.2037 111.288 15.5163 110.988 14.927C110.551 14.0596 109.935 13.3803 109.133 12.8975C108.331 12.4146 107.367 12.1773 106.232 12.1773C105.098 12.1773 104.004 12.4392 103.105 12.9548C102.205 13.4785 101.508 14.2069 101.022 15.1398C100.739 15.6881 100.544 16.3101 100.423 16.9729H111.564H111.572ZM93.171 13.3394C93.9083 14.7224 94.2729 16.2773 94.2729 18.0205C94.2729 18.2823 94.2567 18.5606 94.2324 18.8552C94.2081 19.158 94.1514 19.5017 94.0784 19.8863H79.7289C79.8504 20.5983 80.0611 21.2612 80.369 21.8586C80.8875 22.8325 81.6167 23.5854 82.5728 24.1173C83.5289 24.6492 84.6228 24.9193 85.8544 24.9193C86.8834 24.9193 87.8314 24.7393 88.6903 24.371C89.5491 24.0027 90.2946 23.4626 90.9104 22.7343L93.1467 25.0339C92.2716 26.0732 91.1939 26.867 89.9218 27.4153C88.6497 27.9636 87.2885 28.2337 85.8463 28.2337C84.0151 28.2337 82.3703 27.8081 80.9037 26.9652C79.4372 26.1223 78.2785 24.9684 77.4277 23.5117C76.577 22.055 76.1556 20.4019 76.1556 18.5606C76.1556 16.7193 76.577 15.0989 77.4115 13.6422C78.2461 12.1855 79.3805 11.0316 80.8065 10.1887C82.2325 9.34576 83.8368 8.92021 85.6194 8.92021C87.402 8.92021 88.8199 9.31303 90.1163 10.0905C91.4208 10.8679 92.4336 11.9482 93.171 13.3312V13.3394ZM90.8779 16.9729C90.7807 16.2037 90.5944 15.5163 90.2946 14.927C89.857 14.0596 89.2412 13.3803 88.4391 12.8975C87.6369 12.4146 86.6727 12.1773 85.5384 12.1773C84.404 12.1773 83.3102 12.4392 82.4108 12.9548C81.5114 13.4785 80.8146 14.2069 80.3284 15.1398C80.0449 15.6881 79.8504 16.3101 79.7289 16.9729H90.8779ZM74.916 10.4342C74.4379 9.99227 73.9437 9.64856 73.417 9.41941C72.6716 9.09207 71.837 8.92839 70.9052 8.92839C68.8715 8.92839 67.3158 9.63219 66.23 11.0316C66.1085 11.1871 66.0275 11.3671 65.9221 11.5308V9.31303H62.4462V27.8409H65.9221V17.2676C65.9221 15.5735 66.3354 14.3133 67.1618 13.4867C67.9883 12.652 69.0416 12.2346 70.3299 12.2346C70.9457 12.2346 71.4886 12.3246 71.9504 12.5047C72.4123 12.6847 72.8336 12.9793 73.2144 13.3967L74.916 10.4178V10.4342Z" fill="white"/>
</g>
</svg>
