<svg width="32" height="32" viewBox="0 0 32 32" fill="none" xmlns="http://www.w3.org/2000/svg">
<path d="M28.2691 0H3.73089C1.6703 0 0 1.67028 0 3.73084V28.2692C0 30.3297 1.6703 32 3.73089 32H28.2695C30.3301 32 32.0004 30.3297 32 28.2688V3.73084C32 1.67028 30.3297 0 28.2691 0ZM20.5098 26.425L14.3875 18.2389L6.8098 26.425H4.86174L13.5168 17.0751L4.91595 5.57495H11.5448L17.1834 13.114L24.1618 5.57495H26.1098L18.0537 14.2781L27.1386 26.425H20.5098ZM10.8259 7.01009L24.2736 24.9903H21.2283L7.78065 7.01009H10.8259Z" fill="#727775"/>
</svg>
