<svg width="324" height="374" viewBox="0 0 324 374" fill="none" xmlns="http://www.w3.org/2000/svg">
<path d="M324 188.078V280.143L162.43 373.435L0.849976 280.143V188.078H324Z" fill="#155C3A"/>
<path d="M324 93.568V188.078H0.849976V93.568L162.43 0.275391L324 93.568Z" fill="url(#paint0_linear_6440_65091)"/>
<path d="M98.36 149.871V223.851L162.43 260.831L226.5 223.851V149.871L162.43 112.881L98.36 149.871Z" fill="#E9E9D7"/>
<path d="M121.23 163.069V210.639L162.43 234.429L203.63 210.639V163.069L162.43 139.279L121.23 163.069Z" fill="#0054DE"/>
<path opacity="0.6" d="M134.78 199.58V195.19H135.5V199.58H134.78ZM135.27 199.58V198.92H136.43C136.73 198.92 137 198.85 137.22 198.72C137.45 198.59 137.63 198.41 137.75 198.18C137.87 197.95 137.94 197.68 137.94 197.37C137.94 197.06 137.87 196.8 137.74 196.57C137.61 196.34 137.43 196.16 137.2 196.03C136.97 195.9 136.71 195.83 136.41 195.83H135.25V195.17H136.42C136.74 195.17 137.03 195.23 137.31 195.34C137.58 195.45 137.82 195.61 138.02 195.8C138.22 196 138.38 196.23 138.49 196.5C138.6 196.77 138.66 197.05 138.66 197.37C138.66 197.69 138.6 197.97 138.49 198.24C138.38 198.51 138.22 198.74 138.02 198.94C137.82 199.14 137.58 199.29 137.31 199.4C137.04 199.51 136.75 199.57 136.43 199.57H135.24L135.27 199.58ZM140.59 199.64C140.32 199.64 140.07 199.57 139.85 199.43C139.63 199.29 139.46 199.1 139.33 198.87C139.2 198.63 139.14 198.37 139.14 198.08C139.14 197.79 139.2 197.52 139.33 197.28C139.46 197.04 139.63 196.86 139.85 196.72C140.07 196.58 140.31 196.51 140.59 196.51C140.82 196.51 141.02 196.56 141.2 196.66C141.38 196.76 141.52 196.89 141.62 197.06C141.73 197.23 141.78 197.43 141.78 197.64V198.51C141.78 198.73 141.73 198.92 141.63 199.09C141.53 199.26 141.39 199.4 141.21 199.49C141.03 199.58 140.82 199.64 140.6 199.64H140.59ZM140.7 198.99C140.96 198.99 141.16 198.91 141.32 198.73C141.48 198.56 141.55 198.34 141.55 198.07C141.55 197.89 141.51 197.73 141.44 197.59C141.37 197.45 141.27 197.34 141.14 197.27C141.01 197.2 140.86 197.15 140.69 197.15C140.52 197.15 140.38 197.19 140.25 197.27C140.12 197.35 140.02 197.45 139.95 197.59C139.88 197.73 139.84 197.89 139.84 198.07C139.84 198.25 139.88 198.41 139.95 198.55C140.02 198.69 140.12 198.8 140.25 198.87C140.38 198.94 140.52 198.99 140.69 198.99H140.7ZM141.51 199.58V198.77L141.63 198.04L141.51 197.31V196.57H142.2V199.58H141.51ZM142.7 197.19V196.56H144.83V197.19H142.7ZM143.43 199.58V195.31H144.12V199.58H143.43ZM146.51 199.64C146.24 199.64 145.99 199.57 145.77 199.43C145.55 199.29 145.38 199.1 145.25 198.87C145.12 198.63 145.06 198.37 145.06 198.08C145.06 197.79 145.12 197.52 145.25 197.28C145.38 197.04 145.55 196.86 145.77 196.72C145.99 196.58 146.23 196.51 146.51 196.51C146.74 196.51 146.94 196.56 147.12 196.66C147.3 196.76 147.44 196.89 147.54 197.06C147.65 197.23 147.7 197.43 147.7 197.64V198.51C147.7 198.73 147.65 198.92 147.55 199.09C147.45 199.26 147.31 199.4 147.13 199.49C146.95 199.58 146.74 199.64 146.52 199.64H146.51ZM146.63 198.99C146.89 198.99 147.09 198.91 147.25 198.73C147.41 198.56 147.48 198.34 147.48 198.07C147.48 197.89 147.44 197.73 147.37 197.59C147.3 197.45 147.2 197.34 147.07 197.27C146.94 197.2 146.79 197.15 146.62 197.15C146.45 197.15 146.31 197.19 146.18 197.27C146.05 197.35 145.95 197.45 145.88 197.59C145.81 197.73 145.77 197.89 145.77 198.07C145.77 198.25 145.81 198.41 145.88 198.55C145.95 198.69 146.05 198.8 146.18 198.87C146.31 198.94 146.45 198.99 146.62 198.99H146.63ZM147.44 199.58V198.77L147.56 198.04L147.44 197.31V196.57H148.13V199.58H147.44ZM150.24 199.58V195.19H150.96V199.58H150.24ZM151.82 199.58V196.57H152.51V199.58H151.82ZM153.89 199.58V197.84C153.89 197.64 153.83 197.47 153.7 197.34C153.57 197.21 153.41 197.14 153.21 197.14C153.08 197.14 152.96 197.17 152.85 197.23C152.75 197.29 152.66 197.37 152.61 197.48C152.55 197.58 152.52 197.7 152.52 197.84L152.25 197.69C152.25 197.46 152.3 197.26 152.4 197.08C152.5 196.9 152.64 196.76 152.82 196.66C153 196.56 153.2 196.51 153.42 196.51C153.64 196.51 153.85 196.57 154.02 196.68C154.2 196.8 154.33 196.94 154.43 197.13C154.53 197.31 154.58 197.5 154.58 197.7V199.59H153.89V199.58ZM154.93 197.19V196.56H157.25V197.19H154.93ZM155.66 199.58V196.17C155.66 195.94 155.71 195.74 155.81 195.56C155.91 195.38 156.05 195.25 156.24 195.15C156.42 195.05 156.63 195 156.87 195C157.05 195 157.21 195.03 157.34 195.09C157.47 195.15 157.59 195.24 157.7 195.36L157.25 195.81C157.2 195.76 157.15 195.72 157.09 195.69C157.03 195.66 156.96 195.65 156.86 195.65C156.69 195.65 156.56 195.69 156.47 195.78C156.38 195.87 156.34 196 156.34 196.17V199.58H155.65H155.66ZM157.66 199.58V196.57H158.35V199.58H157.66ZM158.35 197.9L158.11 197.78C158.11 197.4 158.19 197.09 158.36 196.85C158.53 196.61 158.79 196.49 159.13 196.49C159.28 196.49 159.42 196.52 159.54 196.57C159.66 196.63 159.77 196.71 159.88 196.83L159.43 197.29C159.38 197.23 159.32 197.19 159.25 197.16C159.18 197.14 159.11 197.12 159.02 197.12C158.83 197.12 158.67 197.18 158.54 197.3C158.41 197.42 158.35 197.61 158.35 197.87V197.9ZM161.39 199.64C161.12 199.64 160.87 199.57 160.65 199.43C160.43 199.29 160.26 199.1 160.13 198.87C160 198.63 159.94 198.37 159.94 198.08C159.94 197.79 160 197.52 160.13 197.28C160.26 197.04 160.43 196.86 160.65 196.72C160.87 196.58 161.11 196.51 161.39 196.51C161.62 196.51 161.82 196.56 162 196.66C162.18 196.76 162.32 196.89 162.42 197.06C162.53 197.23 162.58 197.43 162.58 197.64V198.51C162.58 198.73 162.53 198.92 162.43 199.09C162.33 199.26 162.19 199.4 162.01 199.49C161.83 199.58 161.62 199.64 161.4 199.64H161.39ZM161.5 198.99C161.76 198.99 161.96 198.91 162.12 198.73C162.28 198.56 162.35 198.34 162.35 198.07C162.35 197.89 162.31 197.73 162.24 197.59C162.17 197.45 162.07 197.34 161.94 197.27C161.81 197.2 161.66 197.15 161.49 197.15C161.32 197.15 161.18 197.19 161.05 197.27C160.92 197.35 160.82 197.45 160.75 197.59C160.68 197.73 160.64 197.89 160.64 198.07C160.64 198.25 160.68 198.41 160.75 198.55C160.82 198.69 160.92 198.8 161.05 198.87C161.18 198.94 161.32 198.99 161.49 198.99H161.5ZM162.31 199.58V198.77L162.43 198.04L162.31 197.31V196.57H163V199.58H162.31ZM164.75 199.64C164.58 199.64 164.42 199.62 164.27 199.57C164.12 199.53 163.97 199.46 163.84 199.38C163.71 199.3 163.6 199.2 163.5 199.08L163.94 198.64C164.04 198.76 164.16 198.85 164.3 198.91C164.44 198.97 164.59 199 164.76 199C164.91 199 165.03 198.98 165.11 198.93C165.19 198.88 165.23 198.82 165.23 198.73C165.23 198.64 165.19 198.57 165.12 198.52C165.05 198.47 164.95 198.43 164.83 198.39C164.71 198.35 164.59 198.32 164.45 198.28C164.32 198.24 164.19 198.19 164.07 198.13C163.95 198.07 163.85 197.98 163.78 197.86C163.7 197.75 163.67 197.6 163.67 197.42C163.67 197.23 163.71 197.06 163.8 196.92C163.89 196.78 164.02 196.68 164.18 196.6C164.34 196.52 164.54 196.49 164.77 196.49C165.01 196.49 165.23 196.53 165.41 196.62C165.59 196.71 165.75 196.83 165.88 197.01L165.44 197.45C165.35 197.34 165.25 197.26 165.14 197.21C165.03 197.16 164.9 197.13 164.75 197.13C164.61 197.13 164.5 197.15 164.43 197.19C164.36 197.23 164.32 197.29 164.32 197.37C164.32 197.45 164.36 197.52 164.43 197.57C164.51 197.62 164.6 197.66 164.72 197.69C164.84 197.72 164.97 197.76 165.1 197.8C165.23 197.84 165.36 197.89 165.48 197.96C165.6 198.03 165.7 198.12 165.77 198.24C165.85 198.36 165.88 198.5 165.88 198.69C165.88 198.98 165.78 199.22 165.57 199.39C165.36 199.56 165.09 199.65 164.73 199.65L164.75 199.64ZM166.2 197.19V196.56H168.33V197.19H166.2ZM166.92 199.58V195.31H167.61V199.58H166.92ZM168.83 199.58V196.57H169.52V199.58H168.83ZM169.53 197.9L169.29 197.78C169.29 197.4 169.37 197.09 169.54 196.85C169.71 196.61 169.97 196.49 170.31 196.49C170.46 196.49 170.6 196.52 170.72 196.57C170.84 196.63 170.95 196.71 171.06 196.83L170.61 197.29C170.56 197.23 170.5 197.19 170.43 197.16C170.36 197.14 170.29 197.12 170.2 197.12C170.01 197.12 169.85 197.18 169.72 197.3C169.59 197.42 169.53 197.61 169.53 197.87V197.9ZM172.63 199.64C172.37 199.64 172.15 199.58 171.95 199.47C171.75 199.36 171.6 199.2 171.49 199C171.38 198.8 171.32 198.57 171.32 198.31V196.56H172.01V198.28C172.01 198.43 172.03 198.55 172.08 198.65C172.13 198.75 172.2 198.83 172.29 198.88C172.38 198.94 172.5 198.96 172.63 198.96C172.83 198.96 172.98 198.9 173.09 198.78C173.2 198.66 173.25 198.49 173.25 198.27V196.55H173.94V198.3C173.94 198.56 173.88 198.79 173.77 198.99C173.66 199.19 173.51 199.34 173.31 199.45C173.11 199.56 172.89 199.62 172.63 199.62V199.64ZM176.02 199.64C175.72 199.64 175.45 199.57 175.21 199.43C174.97 199.29 174.78 199.1 174.64 198.87C174.5 198.63 174.43 198.37 174.43 198.07C174.43 197.77 174.5 197.51 174.64 197.27C174.78 197.03 174.97 196.85 175.21 196.71C175.45 196.57 175.72 196.5 176.02 196.5C176.25 196.5 176.47 196.55 176.68 196.64C176.88 196.73 177.05 196.86 177.2 197.03L176.75 197.49C176.66 197.39 176.56 197.31 176.43 197.26C176.31 197.21 176.17 197.18 176.03 197.18C175.86 197.18 175.71 197.22 175.57 197.3C175.44 197.38 175.34 197.48 175.26 197.62C175.18 197.76 175.15 197.91 175.15 198.09C175.15 198.27 175.19 198.42 175.26 198.56C175.33 198.7 175.44 198.8 175.57 198.88C175.7 198.96 175.85 199 176.03 199C176.18 199 176.31 198.97 176.43 198.92C176.55 198.87 176.66 198.79 176.75 198.69L177.2 199.15C177.06 199.32 176.88 199.45 176.68 199.54C176.48 199.63 176.26 199.67 176.02 199.67V199.64ZM177.38 197.19V196.56H179.51V197.19H177.38ZM178.1 199.58V195.31H178.79V199.58H178.1ZM181.25 199.64C180.99 199.64 180.77 199.58 180.57 199.47C180.37 199.36 180.22 199.2 180.11 199C180 198.8 179.94 198.57 179.94 198.31V196.56H180.63V198.28C180.63 198.43 180.65 198.55 180.7 198.65C180.75 198.75 180.82 198.83 180.91 198.88C181 198.94 181.12 198.96 181.25 198.96C181.45 198.96 181.6 198.9 181.71 198.78C181.82 198.66 181.87 198.49 181.87 198.27V196.55H182.56V198.3C182.56 198.56 182.5 198.79 182.39 198.99C182.28 199.19 182.13 199.34 181.93 199.45C181.73 199.56 181.51 199.62 181.25 199.62V199.64ZM183.26 199.58V196.57H183.95V199.58H183.26ZM183.95 197.9L183.71 197.78C183.71 197.4 183.79 197.09 183.96 196.85C184.13 196.61 184.39 196.49 184.73 196.49C184.88 196.49 185.02 196.52 185.14 196.57C185.26 196.63 185.37 196.71 185.48 196.83L185.03 197.29C184.98 197.23 184.92 197.19 184.85 197.16C184.78 197.14 184.71 197.12 184.62 197.12C184.43 197.12 184.27 197.18 184.14 197.3C184.01 197.42 183.95 197.61 183.95 197.87V197.9ZM187.12 199.64C186.82 199.64 186.55 199.57 186.31 199.44C186.07 199.3 185.88 199.12 185.74 198.88C185.6 198.64 185.53 198.37 185.53 198.08C185.53 197.79 185.6 197.52 185.74 197.28C185.88 197.04 186.07 196.86 186.3 196.72C186.53 196.58 186.8 196.51 187.09 196.51C187.38 196.51 187.62 196.58 187.83 196.71C188.04 196.84 188.22 197.02 188.34 197.24C188.46 197.46 188.52 197.72 188.52 198.01C188.52 198.06 188.52 198.11 188.52 198.16C188.52 198.21 188.5 198.27 188.49 198.33H186.02V197.77H188.14L187.88 198C187.88 197.82 187.84 197.66 187.77 197.54C187.71 197.41 187.62 197.32 187.5 197.25C187.39 197.18 187.24 197.15 187.08 197.15C186.92 197.15 186.75 197.19 186.62 197.26C186.49 197.33 186.39 197.44 186.32 197.58C186.25 197.72 186.21 197.88 186.21 198.07C186.21 198.26 186.25 198.42 186.32 198.57C186.4 198.71 186.5 198.82 186.64 198.9C186.78 198.98 186.94 199.02 187.12 199.02C187.27 199.02 187.42 198.99 187.55 198.94C187.68 198.89 187.79 198.81 187.89 198.7L188.33 199.15C188.18 199.32 188.01 199.45 187.8 199.54C187.59 199.63 187.37 199.67 187.14 199.67L187.12 199.64Z" fill="white"/>
<path d="M141.74 189.679L142.6 191.179H135.28V180.189H142.57L141.71 181.689H136.77V184.809H141.45V186.309H136.77V189.679H141.74ZM149.42 183.659H150.86V191.179H149.42V190.159C149.17 190.499 148.85 190.769 148.46 190.979C148.01 191.219 147.5 191.339 146.92 191.339C146.23 191.339 145.61 191.169 145.05 190.829C144.49 190.489 144.05 190.019 143.73 189.429C143.41 188.839 143.25 188.169 143.25 187.439C143.25 186.709 143.41 186.039 143.73 185.449C144.05 184.859 144.49 184.389 145.04 184.039C145.59 183.689 146.22 183.519 146.92 183.519C147.49 183.519 148 183.639 148.45 183.879C148.84 184.089 149.16 184.359 149.42 184.699V183.679V183.659ZM149.52 187.419C149.52 186.899 149.42 186.449 149.23 186.069C149.03 185.679 148.76 185.379 148.4 185.169C148.04 184.949 147.62 184.849 147.15 184.849C146.68 184.849 146.26 184.959 145.89 185.179C145.53 185.399 145.24 185.709 145.04 186.089C144.83 186.479 144.73 186.919 144.73 187.409C144.73 187.899 144.83 188.359 145.04 188.749C145.25 189.139 145.53 189.439 145.9 189.659C146.27 189.879 146.69 189.989 147.17 189.989C147.88 189.989 148.45 189.749 148.88 189.269C149.31 188.789 149.53 188.179 149.53 187.429L149.52 187.419ZM156.06 183.499C155.23 183.499 154.59 183.779 154.14 184.349C154.1 184.409 154.05 184.469 154.01 184.529V183.649H152.59V191.169H154.01V186.879C154.01 186.189 154.18 185.679 154.52 185.339C154.86 184.999 155.29 184.829 155.82 184.829C156.07 184.829 156.29 184.869 156.48 184.939C156.67 185.009 156.84 185.139 157 185.299L157.1 185.199L157.72 184.119C157.52 183.929 157.3 183.779 157.07 183.679C156.76 183.549 156.42 183.479 156.04 183.479L156.06 183.499ZM164.19 183.929C163.75 183.649 163.25 183.499 162.68 183.499C162.11 183.499 161.6 183.629 161.14 183.889C160.8 184.079 160.51 184.329 160.29 184.629V183.659H158.87V191.179H160.29V186.789C160.29 186.409 160.37 186.069 160.54 185.779C160.71 185.479 160.94 185.249 161.24 185.079C161.54 184.909 161.87 184.829 162.25 184.829C162.82 184.829 163.28 185.009 163.64 185.379C164 185.749 164.18 186.219 164.18 186.789V191.179H165.6V186.509C165.6 185.989 165.47 185.499 165.22 185.049C164.97 184.589 164.62 184.219 164.18 183.929H164.19ZM175.66 183.669C175.92 184.319 176.06 185.039 176.06 185.819C176.06 186.599 175.93 187.299 175.66 187.959C175.4 188.609 175.02 189.179 174.54 189.659C174.06 190.139 173.49 190.509 172.84 190.779C172.19 191.039 171.47 191.179 170.69 191.179H167.46V180.479H170.66C171.45 180.479 172.17 180.609 172.83 180.879C173.48 181.139 174.05 181.509 174.54 181.989C175.03 182.459 175.4 183.029 175.66 183.679V183.669ZM175.52 185.809C175.52 184.869 175.31 184.029 174.9 183.299C174.49 182.569 173.92 181.989 173.18 181.569C172.45 181.149 171.6 180.939 170.65 180.939H167.96V190.689H170.65C171.6 190.689 172.44 190.479 173.18 190.059C173.91 189.639 174.49 189.059 174.9 188.329C175.31 187.599 175.52 186.749 175.52 185.799V185.809ZM178.18 190.719V180.479H177.67V191.179H184.16L183.9 190.719H178.18ZM190.17 180.469H181.8L182.07 180.929H185.87V191.169H186.38V180.929H190.45L190.18 180.469H190.17Z" fill="#E9E9D7"/>
<path d="M87.4201 83.0301C87.4201 84.1901 86.4801 85.1401 85.3101 85.1401C84.1401 85.1401 83.2001 84.2001 83.2001 83.0301C83.2001 81.8601 84.1401 80.9201 85.3101 80.9201C86.4801 80.9201 87.4201 81.8601 87.4201 83.0301ZM83.1801 83.0301C83.1801 81.9901 82.3401 81.1501 81.3001 81.1501C80.2601 81.1501 79.4201 81.9901 79.4201 83.0301C79.4201 84.0701 80.2601 84.9101 81.3001 84.9101C82.3401 84.9101 83.1801 84.0701 83.1801 83.0301ZM78.7001 83.0301C78.7001 82.2501 78.0701 81.6101 77.2801 81.6101C76.4901 81.6101 75.8601 82.2401 75.8601 83.0301C75.8601 83.8201 76.4901 84.4501 77.2801 84.4501C78.0701 84.4501 78.7001 83.8201 78.7001 83.0301ZM74.2301 83.0301C74.2301 82.5101 73.8001 82.0801 73.2801 82.0801C72.7601 82.0801 72.3301 82.5101 72.3301 83.0301C72.3301 83.5501 72.7601 83.9801 73.2801 83.9801C73.8001 83.9801 74.2301 83.5501 74.2301 83.0301ZM89.3101 84.9101C90.3501 84.9101 91.1901 84.0701 91.1901 83.0301C91.1901 81.9901 90.3501 81.1501 89.3101 81.1501C88.2701 81.1501 87.4301 81.9901 87.4301 83.0301C87.4301 84.0701 88.2701 84.9101 89.3101 84.9101ZM93.3201 84.4501C94.1001 84.4501 94.7401 83.8201 94.7401 83.0301C94.7401 82.2401 94.1101 81.6101 93.3201 81.6101C92.5301 81.6101 91.9001 82.2401 91.9001 83.0301C91.9001 83.8101 92.5301 84.4501 93.3201 84.4501ZM97.3401 83.9801C97.8601 83.9801 98.2901 83.5501 98.2901 83.0301C98.2901 82.5101 97.8601 82.0801 97.3401 82.0801C96.8201 82.0801 96.3901 82.5101 96.3901 83.0301C96.3901 83.5501 96.8201 83.9801 97.3401 83.9801ZM86.7201 75.0101C86.7201 74.2301 86.0901 73.5901 85.3001 73.5901C84.5101 73.5901 83.8801 74.2201 83.8801 75.0101C83.8801 75.8001 84.5101 76.4301 85.3001 76.4301C86.0901 76.4301 86.7201 75.8001 86.7201 75.0101ZM82.3701 75.0101C82.3701 74.4101 81.8901 73.9301 81.2901 73.9301C80.6901 73.9301 80.2101 74.4101 80.2101 75.0101C80.2101 75.6101 80.6901 76.0901 81.2901 76.0901C81.8901 76.0901 82.3701 75.6101 82.3701 75.0101ZM78.0201 75.0101C78.0201 74.6001 77.6901 74.2701 77.2801 74.2701C76.8701 74.2701 76.5401 74.6001 76.5401 75.0101C76.5401 75.4201 76.8701 75.7501 77.2801 75.7501C77.6901 75.7501 78.0201 75.4201 78.0201 75.0101ZM86.2601 70.9901C86.2601 70.4701 85.8301 70.0401 85.3101 70.0401C84.7901 70.0401 84.3601 70.4701 84.3601 70.9901C84.3601 71.5101 84.7901 71.9401 85.3101 71.9401C85.8301 71.9401 86.2601 71.5101 86.2601 70.9901ZM87.1901 79.0201C87.1901 77.9801 86.3501 77.1401 85.3101 77.1401C84.2701 77.1401 83.4301 77.9801 83.4301 79.0201C83.4301 80.0601 84.2701 80.9001 85.3101 80.9001C86.3501 80.9001 87.1901 80.0601 87.1901 79.0201ZM82.8001 79.0201C82.8001 78.1901 82.1301 77.5201 81.3001 77.5201C80.4701 77.5201 79.8001 78.1901 79.8001 79.0201C79.8001 79.8501 80.4701 80.5201 81.3001 80.5201C82.1301 80.5201 82.8001 79.8501 82.8001 79.0201ZM78.4001 79.0201C78.4001 78.4001 77.9001 77.9001 77.2801 77.9001C76.6601 77.9001 76.1601 78.4001 76.1601 79.0201C76.1601 79.6401 76.6601 80.1401 77.2801 80.1401C77.9001 80.1401 78.4001 79.6401 78.4001 79.0201ZM74.0201 79.0201C74.0201 78.6101 73.6901 78.2801 73.2801 78.2801C72.8701 78.2801 72.5401 78.6101 72.5401 79.0201C72.5401 79.4301 72.8701 79.7601 73.2801 79.7601C73.6901 79.7601 74.0201 79.4301 74.0201 79.0201ZM73.6601 75.0101C73.6601 74.8001 73.4901 74.6301 73.2801 74.6301C73.0701 74.6301 72.9001 74.8001 72.9001 75.0101C72.9001 75.2201 73.0701 75.3901 73.2801 75.3901C73.4901 75.3901 73.6601 75.2201 73.6601 75.0101ZM82.0401 70.9901C82.0401 70.5801 81.7101 70.2501 81.3001 70.2501C80.8901 70.2501 80.5601 70.5801 80.5601 70.9901C80.5601 71.4001 80.8901 71.7301 81.3001 71.7301C81.7101 71.7301 82.0401 71.4001 82.0401 70.9901ZM77.6701 70.9901C77.6701 70.7801 77.5001 70.6101 77.2901 70.6101C77.0801 70.6101 76.9101 70.7801 76.9101 70.9901C76.9101 71.2001 77.0801 71.3701 77.2901 71.3701C77.5001 71.3701 77.6701 71.2001 77.6701 70.9901ZM89.3201 76.0901C89.9201 76.0901 90.4001 75.6101 90.4001 75.0101C90.4001 74.4101 89.9201 73.9301 89.3201 73.9301C88.7201 73.9301 88.2401 74.4101 88.2401 75.0101C88.2401 75.6101 88.7201 76.0901 89.3201 76.0901ZM93.3301 75.7501C93.7401 75.7501 94.0701 75.4201 94.0701 75.0101C94.0701 74.6001 93.7401 74.2701 93.3301 74.2701C92.9201 74.2701 92.5901 74.6001 92.5901 75.0101C92.5901 75.4201 92.9201 75.7501 93.3301 75.7501ZM89.3201 80.5201C90.1501 80.5201 90.8201 79.8501 90.8201 79.0201C90.8201 78.1901 90.1501 77.5201 89.3201 77.5201C88.4901 77.5201 87.8201 78.1901 87.8201 79.0201C87.8201 79.8501 88.4901 80.5201 89.3201 80.5201ZM93.3301 80.1401C93.9501 80.1401 94.4501 79.6401 94.4501 79.0201C94.4501 78.4001 93.9501 77.9001 93.3301 77.9001C92.7101 77.9001 92.2101 78.4001 92.2101 79.0201C92.2101 79.6401 92.7101 80.1401 93.3301 80.1401ZM97.3401 79.7601C97.7501 79.7601 98.0801 79.4301 98.0801 79.0201C98.0801 78.6101 97.7501 78.2801 97.3401 78.2801C96.9301 78.2801 96.6001 78.6101 96.6001 79.0201C96.6001 79.4301 96.9301 79.7601 97.3401 79.7601ZM97.3401 75.3901C97.5501 75.3901 97.7201 75.2201 97.7201 75.0101C97.7201 74.8001 97.5501 74.6301 97.3401 74.6301C97.1301 74.6301 96.9601 74.8001 96.9601 75.0101C96.9601 75.2201 97.1301 75.3901 97.3401 75.3901ZM89.3201 71.7401C89.7301 71.7401 90.0601 71.4101 90.0601 71.0001C90.0601 70.5901 89.7301 70.2601 89.3201 70.2601C88.9101 70.2601 88.5801 70.5901 88.5801 71.0001C88.5801 71.4101 88.9101 71.7401 89.3201 71.7401ZM93.3201 71.3801C93.5301 71.3801 93.7001 71.2101 93.7001 71.0001C93.7001 70.7901 93.5301 70.6201 93.3201 70.6201C93.1101 70.6201 92.9401 70.7901 92.9401 71.0001C92.9401 71.2101 93.1101 71.3801 93.3201 71.3801ZM83.8901 91.0601C83.8901 91.8401 84.5201 92.4801 85.3101 92.4801C86.1001 92.4801 86.7301 91.8501 86.7301 91.0601C86.7301 90.2701 86.1001 89.6401 85.3101 89.6401C84.5201 89.6401 83.8901 90.2701 83.8901 91.0601ZM88.2401 91.0601C88.2401 91.6601 88.7201 92.1401 89.3201 92.1401C89.9201 92.1401 90.4001 91.6601 90.4001 91.0601C90.4001 90.4601 89.9201 89.9801 89.3201 89.9801C88.7201 89.9801 88.2401 90.4601 88.2401 91.0601ZM92.5901 91.0601C92.5901 91.4701 92.9201 91.8001 93.3301 91.8001C93.7401 91.8001 94.0701 91.4701 94.0701 91.0601C94.0701 90.6501 93.7401 90.3201 93.3301 90.3201C92.9201 90.3201 92.5901 90.6501 92.5901 91.0601ZM84.3601 95.0701C84.3601 95.5901 84.7901 96.0201 85.3101 96.0201C85.8301 96.0201 86.2601 95.5901 86.2601 95.0701C86.2601 94.5501 85.8301 94.1201 85.3101 94.1201C84.7901 94.1201 84.3601 94.5501 84.3601 95.0701ZM83.4201 87.0501C83.4201 88.0901 84.2601 88.9301 85.3001 88.9301C86.3401 88.9301 87.1801 88.0901 87.1801 87.0501C87.1801 86.0101 86.3401 85.1701 85.3001 85.1701C84.2601 85.1701 83.4201 86.0101 83.4201 87.0501ZM87.8201 87.0501C87.8201 87.8801 88.4901 88.5501 89.3201 88.5501C90.1501 88.5501 90.8201 87.8801 90.8201 87.0501C90.8201 86.2201 90.1501 85.5501 89.3201 85.5501C88.4901 85.5501 87.8201 86.2201 87.8201 87.0501ZM92.2101 87.0501C92.2101 87.6701 92.7101 88.1701 93.3301 88.1701C93.9501 88.1701 94.4501 87.6701 94.4501 87.0501C94.4501 86.4301 93.9501 85.9301 93.3301 85.9301C92.7101 85.9301 92.2101 86.4301 92.2101 87.0501ZM96.6001 87.0501C96.6001 87.4601 96.9301 87.7901 97.3401 87.7901C97.7501 87.7901 98.0801 87.4601 98.0801 87.0501C98.0801 86.6401 97.7501 86.3101 97.3401 86.3101C96.9301 86.3101 96.6001 86.6401 96.6001 87.0501ZM96.9601 91.0601C96.9601 91.2701 97.1301 91.4401 97.3401 91.4401C97.5501 91.4401 97.7201 91.2701 97.7201 91.0601C97.7201 90.8501 97.5501 90.6801 97.3401 90.6801C97.1301 90.6801 96.9601 90.8501 96.9601 91.0601ZM88.5701 95.0701C88.5701 95.4801 88.9001 95.8101 89.3101 95.8101C89.7201 95.8101 90.0501 95.4801 90.0501 95.0701C90.0501 94.6601 89.7201 94.3301 89.3101 94.3301C88.9001 94.3301 88.5701 94.6601 88.5701 95.0701ZM92.9501 95.0701C92.9501 95.2801 93.1201 95.4501 93.3301 95.4501C93.5401 95.4501 93.7101 95.2801 93.7101 95.0701C93.7101 94.8601 93.5401 94.6901 93.3301 94.6901C93.1201 94.6901 92.9501 94.8601 92.9501 95.0701ZM81.2901 89.9801C80.6901 89.9801 80.2101 90.4601 80.2101 91.0601C80.2101 91.6601 80.6901 92.1401 81.2901 92.1401C81.8901 92.1401 82.3701 91.6601 82.3701 91.0601C82.3701 90.4601 81.8901 89.9801 81.2901 89.9801ZM77.2801 90.3101C76.8701 90.3101 76.5401 90.6401 76.5401 91.0501C76.5401 91.4601 76.8701 91.7901 77.2801 91.7901C77.6901 91.7901 78.0201 91.4601 78.0201 91.0501C78.0201 90.6401 77.6901 90.3101 77.2801 90.3101ZM77.2801 94.6901C77.0701 94.6901 76.9001 94.8601 76.9001 95.0701C76.9001 95.2801 77.0701 95.4501 77.2801 95.4501C77.4901 95.4501 77.6601 95.2801 77.6601 95.0701C77.6601 94.8601 77.4901 94.6901 77.2801 94.6901ZM81.2901 85.5401C80.4601 85.5401 79.7901 86.2101 79.7901 87.0401C79.7901 87.8701 80.4601 88.5401 81.2901 88.5401C82.1201 88.5401 82.7901 87.8701 82.7901 87.0401C82.7901 86.2101 82.1201 85.5401 81.2901 85.5401ZM77.2801 85.9201C76.6601 85.9201 76.1601 86.4201 76.1601 87.0401C76.1601 87.6601 76.6601 88.1601 77.2801 88.1601C77.9001 88.1601 78.4001 87.6601 78.4001 87.0401C78.4001 86.4201 77.9001 85.9201 77.2801 85.9201ZM73.2801 86.3001C72.8701 86.3001 72.5401 86.6301 72.5401 87.0401C72.5401 87.4501 72.8701 87.7801 73.2801 87.7801C73.6901 87.7801 74.0201 87.4501 74.0201 87.0401C74.0201 86.6301 73.6901 86.3001 73.2801 86.3001ZM73.2801 90.6701C73.0701 90.6701 72.9001 90.8401 72.9001 91.0501C72.9001 91.2601 73.0701 91.4301 73.2801 91.4301C73.4901 91.4301 73.6601 91.2601 73.6601 91.0501C73.6601 90.8401 73.4901 90.6701 73.2801 90.6701ZM81.2901 94.3301C80.8801 94.3301 80.5501 94.6601 80.5501 95.0701C80.5501 95.4801 80.8801 95.8101 81.2901 95.8101C81.7001 95.8101 82.0301 95.4801 82.0301 95.0701C82.0301 94.6601 81.7001 94.3301 81.2901 94.3301ZM208.1 77.8801C208.48 78.0301 208.83 78.2701 209.15 78.6101L210.56 76.1601C210.17 75.8001 209.75 75.5201 209.31 75.3301C208.69 75.0601 207.99 74.9301 207.22 74.9301C205.53 74.9301 204.24 75.5101 203.34 76.6601C203.24 76.7901 203.17 76.9301 203.08 77.0701V75.2501H200.19V90.4901H203.08V81.7901C203.08 80.4001 203.42 79.3601 204.11 78.6801C204.79 78.0001 205.67 77.6501 206.74 77.6501C207.25 77.6501 207.7 77.7301 208.09 77.8701L208.1 77.8801ZM193.63 75.2501H197.38V77.8801H193.63V90.4901H190.74V77.8801H186.99V75.2501H190.74V70.5001L193.58 68.8601H193.63V75.2501ZM234.87 75.2501H238.62V77.8801H234.87V90.4901H231.98V77.8801H228.23V75.2501H231.98V70.5101L234.84 68.8601H234.87V75.2501ZM222.87 75.2501H225.76V84.1101C225.76 85.4401 225.48 86.6001 224.93 87.6101C224.37 88.6201 223.61 89.4001 222.64 89.9701C221.67 90.5401 220.54 90.8201 219.25 90.8201C217.96 90.8201 216.86 90.5401 215.86 89.9701C214.86 89.4001 214.09 88.6201 213.53 87.6101C212.97 86.6001 212.7 85.4401 212.7 84.1101V75.2501H215.59V83.9801C215.59 84.8101 215.73 85.5401 216.02 86.1501C216.31 86.7601 216.73 87.2301 217.29 87.5501C217.85 87.8701 218.5 88.0301 219.25 88.0301C220.38 88.0301 221.27 87.6701 221.91 86.9501C222.55 86.2301 222.87 85.2401 222.87 83.9801V75.2501ZM255.12 81.0301V90.5001H252.23V81.6101C252.23 80.4501 251.87 79.5001 251.14 78.7501C250.41 78.0001 249.47 77.6301 248.32 77.6301C247.55 77.6301 246.86 77.8001 246.27 78.1401C245.67 78.4801 245.2 78.9501 244.86 79.5501C244.52 80.1501 244.35 80.8301 244.35 81.6001V90.4901H241.46V67.5801H244.35V77.2201C244.81 76.6101 245.39 76.1101 246.08 75.7201C247 75.2001 248.04 74.9301 249.19 74.9301C250.34 74.9301 251.37 75.1901 252.25 75.7001C253.13 76.2101 253.84 76.9301 254.35 77.8501C254.86 78.7701 255.12 79.8301 255.12 81.0301ZM183.91 78.0601C183.4 77.1301 182.7 76.3801 181.81 75.8001C180.92 75.2201 179.9 74.9301 178.75 74.9301C177.6 74.9301 176.56 75.1901 175.64 75.7201C174.95 76.1101 174.37 76.6201 173.91 77.2201V75.2501H171.02V90.4901H173.91V81.6001C173.91 80.8301 174.08 80.1501 174.42 79.5501C174.76 78.9501 175.23 78.4801 175.83 78.1401C176.43 77.8001 177.11 77.6301 177.88 77.6301C179.04 77.6301 179.98 78.0001 180.7 78.7501C181.43 79.5001 181.79 80.4501 181.79 81.6101V90.5001H184.68V81.0301C184.68 79.9801 184.42 78.9901 183.91 78.0601ZM117.09 77.2801C116.57 76.5901 115.93 76.0401 115.13 75.6301C114.21 75.1601 113.15 74.9201 111.95 74.9201C110.56 74.9201 109.31 75.2601 108.21 75.9301C107.11 76.6001 106.24 77.5101 105.59 78.6601C104.95 79.8001 104.63 81.1001 104.63 82.5601C104.63 84.0201 104.95 85.3301 105.59 86.4901C106.23 87.6601 107.1 88.5701 108.21 89.2301C109.31 89.8901 110.56 90.2201 111.95 90.2201C113.13 90.2201 114.17 89.9801 115.09 89.5101C115.9 89.0901 116.56 88.5201 117.08 87.8201V89.8701C117.08 91.2601 116.63 92.3701 115.72 93.1901C114.81 94.0101 113.57 94.4301 112.01 94.4301C110.83 94.4301 109.82 94.2201 108.96 93.8001C108.1 93.3801 107.37 92.7801 106.75 91.9901L104.89 93.8801C105.62 94.9301 106.59 95.7401 107.79 96.3201C109 96.9001 110.38 97.1901 111.95 97.1901C113.52 97.1901 114.93 96.8801 116.14 96.2601C117.35 95.6401 118.29 94.7801 118.96 93.6901C119.63 92.6001 119.97 91.3301 119.97 89.8701V75.2401H117.08V77.2701L117.09 77.2801ZM116.67 85.1801C116.29 85.9201 115.73 86.4901 115.02 86.9001C114.3 87.3101 113.47 87.5101 112.53 87.5101C111.59 87.5101 110.72 87.3001 109.98 86.8801C109.24 86.4601 108.66 85.8801 108.25 85.1301C107.83 84.3801 107.62 83.5301 107.62 82.5601C107.62 81.5901 107.83 80.7501 108.25 80.0101C108.67 79.2701 109.24 78.6901 109.97 78.2801C110.7 77.8601 111.54 77.6501 112.51 77.6501C113.48 77.6501 114.31 77.8601 115.01 78.2801C115.72 78.7001 116.27 79.2801 116.66 80.0101C117.06 80.7501 117.25 81.6101 117.25 82.5901C117.25 83.5701 117.06 84.4401 116.67 85.1701V85.1801ZM164.41 75.8901C163.33 75.2501 162.08 74.9301 160.67 74.9301C159.26 74.9301 157.86 75.2801 156.67 75.9701C155.48 76.6701 154.54 77.6101 153.85 78.8101C153.15 80.0101 152.81 81.3601 152.81 82.8501C152.81 84.3401 153.16 85.7301 153.87 86.9301C154.58 88.1301 155.54 89.0801 156.76 89.7701C157.98 90.4701 159.35 90.8101 160.87 90.8101C162.07 90.8101 163.2 90.5901 164.26 90.1401C165.32 89.6901 166.21 89.0401 166.94 88.1801L165.08 86.2901C164.57 86.8901 163.95 87.3401 163.24 87.6401C162.52 87.9401 161.74 88.0901 160.88 88.0901C159.85 88.0901 158.94 87.8701 158.15 87.4301C157.36 86.9901 156.75 86.3701 156.32 85.5701C156.06 85.0801 155.89 84.5401 155.79 83.9501H167.72C167.78 83.6301 167.83 83.3501 167.85 83.1001C167.87 82.8501 167.88 82.6201 167.88 82.4101C167.88 80.9801 167.58 79.6901 166.97 78.5601C166.36 77.4301 165.51 76.5401 164.43 75.9001L164.41 75.8901ZM155.78 81.5401C155.88 80.9901 156.04 80.4801 156.28 80.0301C156.69 79.2601 157.26 78.6601 158.01 78.2301C158.76 77.8001 159.63 77.5901 160.61 77.5901C161.59 77.5901 162.35 77.7901 163.02 78.1801C163.68 78.5801 164.2 79.1301 164.56 79.8501C164.81 80.3401 164.96 80.9001 165.04 81.5301H155.78V81.5401ZM147.21 75.8901C146.13 75.2501 144.88 74.9301 143.47 74.9301C142.06 74.9301 140.66 75.2801 139.47 75.9701C138.28 76.6701 137.34 77.6101 136.65 78.8101C135.95 80.0101 135.61 81.3601 135.61 82.8501C135.61 84.3401 135.96 85.7301 136.67 86.9301C137.38 88.1301 138.34 89.0801 139.56 89.7701C140.78 90.4701 142.15 90.8101 143.67 90.8101C144.87 90.8101 146 90.5901 147.06 90.1401C148.12 89.6901 149.01 89.0401 149.74 88.1801L147.88 86.2901C147.37 86.8901 146.75 87.3401 146.04 87.6401C145.32 87.9401 144.54 88.0901 143.68 88.0901C142.65 88.0901 141.74 87.8701 140.95 87.4301C140.16 86.9901 139.55 86.3701 139.12 85.5701C138.86 85.0801 138.69 84.5401 138.59 83.9501H150.52C150.58 83.6301 150.63 83.3501 150.65 83.1001C150.67 82.8501 150.68 82.6201 150.68 82.4101C150.68 80.9801 150.38 79.6901 149.77 78.5601C149.16 77.4301 148.32 76.5401 147.23 75.9001L147.21 75.8901ZM138.58 81.5401C138.68 80.9901 138.84 80.4801 139.08 80.0301C139.49 79.2601 140.06 78.6601 140.81 78.2301C141.56 77.8001 142.43 77.5901 143.41 77.5901C144.39 77.5901 145.15 77.7901 145.82 78.1801C146.48 78.5801 147 79.1301 147.36 79.8501C147.61 80.3401 147.76 80.9001 147.84 81.5301H138.58V81.5401ZM133.16 78.6101C132.84 78.2701 132.49 78.0301 132.11 77.8801C131.72 77.7301 131.28 77.6601 130.76 77.6601C129.69 77.6601 128.81 78.0001 128.13 78.6901C127.45 79.3701 127.1 80.4101 127.1 81.8001V90.5001H124.21V75.2601H127.1V77.0801C127.19 76.9401 127.26 76.8001 127.36 76.6701C128.26 75.5101 129.55 74.9401 131.24 74.9401C132.01 74.9401 132.71 75.0701 133.33 75.3401C133.77 75.5301 134.18 75.8101 134.58 76.1701L133.17 78.6201L133.16 78.6101Z" fill="white"/>
<defs>
<linearGradient id="paint0_linear_6440_65091" x1="162.43" y1="188.078" x2="162.43" y2="0.275391" gradientUnits="userSpaceOnUse">
<stop stop-color="#155C3A"/>
<stop offset="1" stop-color="#142D21"/>
</linearGradient>
</defs>
</svg>
