<svg width="78" height="78" viewBox="0 0 78 78" fill="none" xmlns="http://www.w3.org/2000/svg">
<path d="M39.0203 45.3282C42.517 45.3282 45.3517 42.495 45.3517 39C45.3517 35.5051 42.517 32.6719 39.0203 32.6719C35.5235 32.6719 32.6888 35.5051 32.6888 39C32.6888 42.495 35.5235 45.3282 39.0203 45.3282Z" fill="#1AAC66"/>
<path d="M26.9642 44.6618C30.0923 44.6618 32.6281 42.1273 32.6281 39.0008C32.6281 35.8743 30.0923 33.3398 26.9642 33.3398C23.8361 33.3398 21.3003 35.8743 21.3003 39.0008C21.3003 42.1273 23.8361 44.6618 26.9642 44.6618Z" fill="#178B53"/>
<path d="M14.9082 43.2453C17.2543 43.2453 19.1561 41.3445 19.1561 38.9996C19.1561 36.6548 17.2543 34.7539 14.9082 34.7539C12.5621 34.7539 10.6603 36.6548 10.6603 38.9996C10.6603 41.3445 12.5621 43.2453 14.9082 43.2453Z" fill="#155C3A"/>
<path d="M2.85218 41.8498C4.42739 41.8498 5.70436 40.5735 5.70436 38.9991C5.70436 37.4247 4.42739 36.1484 2.85218 36.1484C1.27696 36.1484 0 37.4247 0 38.9991C0 40.5735 1.27696 41.8498 2.85218 41.8498Z" fill="#142D21"/>
<path d="M51.0357 44.6618C54.1638 44.6618 56.6996 42.1273 56.6996 39.0008C56.6996 35.8743 54.1638 33.3398 51.0357 33.3398C47.9076 33.3398 45.3718 35.8743 45.3718 39.0008C45.3718 42.1273 47.9076 44.6618 51.0357 44.6618Z" fill="#178B53"/>
<path d="M63.0918 43.2453C65.4379 43.2453 67.3397 41.3445 67.3397 38.9996C67.3397 36.6548 65.4379 34.7539 63.0918 34.7539C60.7457 34.7539 58.8439 36.6548 58.8439 38.9996C58.8439 41.3445 60.7457 43.2453 63.0918 43.2453Z" fill="#155C3A"/>
<path d="M75.1478 41.8498C76.723 41.8498 78 40.5735 78 38.9991C78 37.4247 76.723 36.1484 75.1478 36.1484C73.5726 36.1484 72.2957 37.4247 72.2957 38.9991C72.2957 40.5735 73.5726 41.8498 75.1478 41.8498Z" fill="#142D21"/>
<path d="M39 19.1457C41.3461 19.1457 43.2479 17.2449 43.2479 14.9C43.2479 12.5552 41.3461 10.6543 39 10.6543C36.6539 10.6543 34.7521 12.5552 34.7521 14.9C34.7521 17.2449 36.6539 19.1457 39 19.1457Z" fill="#155C3A"/>
<path d="M26.944 18.1357C28.7315 18.1357 30.1805 16.6874 30.1805 14.9009C30.1805 13.1143 28.7315 11.666 26.944 11.666C25.1566 11.666 23.7075 13.1143 23.7075 14.9009C23.7075 16.6874 25.1566 18.1357 26.944 18.1357Z" fill="#155C3A"/>
<path d="M14.8879 17.1446C16.128 17.1446 17.1332 16.1398 17.1332 14.9004C17.1332 13.661 16.128 12.6562 14.8879 12.6562C13.6478 12.6562 12.6426 13.661 12.6426 14.9004C12.6426 16.1398 13.6478 17.1446 14.8879 17.1446Z" fill="#142D21"/>
<path d="M39 5.7014C40.5752 5.7014 41.8522 4.4251 41.8522 2.8507C41.8522 1.2763 40.5752 0 39 0C37.4248 0 36.1478 1.2763 36.1478 2.8507C36.1478 4.4251 37.4248 5.7014 39 5.7014Z" fill="#142D21"/>
<path d="M39 32.611C42.128 32.611 44.6639 30.0765 44.6639 26.95C44.6639 23.8236 42.128 21.2891 39 21.2891C35.8719 21.2891 33.3361 23.8236 33.3361 26.95C33.3361 30.0765 35.8719 32.611 39 32.611Z" fill="#178B53"/>
<path d="M26.944 31.4585C29.4353 31.4585 31.4549 29.44 31.4549 26.95C31.4549 24.46 29.4353 22.4414 26.944 22.4414C24.4527 22.4414 22.4331 24.46 22.4331 26.95C22.4331 29.44 24.4527 31.4585 26.944 31.4585Z" fill="#155C3A"/>
<path d="M14.888 30.3269C16.7537 30.3269 18.2661 28.8153 18.2661 26.9506C18.2661 25.0859 16.7537 23.5742 14.888 23.5742C13.0223 23.5742 11.5099 25.0859 11.5099 26.9506C11.5099 28.8153 13.0223 30.3269 14.888 30.3269Z" fill="#155C3A"/>
<path d="M2.85214 29.1954C4.09221 29.1954 5.09748 28.1906 5.09748 26.9512C5.09748 25.7118 4.09221 24.707 2.85214 24.707C1.61208 24.707 0.606812 25.7118 0.606812 26.9512C0.606812 28.1906 1.61208 29.1954 2.85214 29.1954Z" fill="#142D21"/>
<path d="M2.85223 16.0529C3.48902 16.0529 4.00524 15.5369 4.00524 14.9005C4.00524 14.264 3.48902 13.748 2.85223 13.748C2.21544 13.748 1.69922 14.264 1.69922 14.9005C1.69922 15.5369 2.21544 16.0529 2.85223 16.0529Z" fill="#142D21"/>
<path d="M26.9439 5.09576C28.184 5.09576 29.1893 4.09101 29.1893 2.85159C29.1893 1.61217 28.184 0.607422 26.9439 0.607422C25.7039 0.607422 24.6986 1.61217 24.6986 2.85159C24.6986 4.09101 25.7039 5.09576 26.9439 5.09576Z" fill="#142D21"/>
<path d="M14.9081 4.00404C15.5449 4.00404 16.0611 3.48809 16.0611 2.85163C16.0611 2.21517 15.5449 1.69922 14.9081 1.69922C14.2713 1.69922 13.7551 2.21517 13.7551 2.85163C13.7551 3.48809 14.2713 4.00404 14.9081 4.00404Z" fill="#142D21"/>
<path d="M51.056 18.1357C52.8435 18.1357 54.2925 16.6874 54.2925 14.9009C54.2925 13.1143 52.8435 11.666 51.056 11.666C49.2685 11.666 47.8195 13.1143 47.8195 14.9009C47.8195 16.6874 49.2685 18.1357 51.056 18.1357Z" fill="#155C3A"/>
<path d="M63.112 17.1446C64.3521 17.1446 65.3574 16.1398 65.3574 14.9004C65.3574 13.661 64.3521 12.6562 63.112 12.6562C61.872 12.6562 60.8667 13.661 60.8667 14.9004C60.8667 16.1398 61.872 17.1446 63.112 17.1446Z" fill="#142D21"/>
<path d="M51.0561 31.4585C53.5474 31.4585 55.5669 29.44 55.5669 26.95C55.5669 24.46 53.5474 22.4414 51.0561 22.4414C48.5648 22.4414 46.5452 24.46 46.5452 26.95C46.5452 29.44 48.5648 31.4585 51.0561 31.4585Z" fill="#155C3A"/>
<path d="M63.112 30.3269C64.9777 30.3269 66.4901 28.8153 66.4901 26.9506C66.4901 25.0859 64.9777 23.5742 63.112 23.5742C61.2463 23.5742 59.7339 25.0859 59.7339 26.9506C59.7339 28.8153 61.2463 30.3269 63.112 30.3269Z" fill="#155C3A"/>
<path d="M75.1681 29.1954C76.4081 29.1954 77.4134 28.1906 77.4134 26.9512C77.4134 25.7118 76.4081 24.707 75.1681 24.707C73.928 24.707 72.9227 25.7118 72.9227 26.9512C72.9227 28.1906 73.928 29.1954 75.1681 29.1954Z" fill="#142D21"/>
<path d="M75.168 16.0529C75.8048 16.0529 76.321 15.5369 76.321 14.9005C76.321 14.264 75.8048 13.748 75.168 13.748C74.5312 13.748 74.015 14.264 74.015 14.9005C74.015 15.5369 74.5312 16.0529 75.168 16.0529Z" fill="#142D21"/>
<path d="M51.056 5.09576C52.2961 5.09576 53.3013 4.09101 53.3013 2.85159C53.3013 1.61217 52.2961 0.607422 51.056 0.607422C49.8159 0.607422 48.8107 1.61217 48.8107 2.85159C48.8107 4.09101 49.8159 5.09576 51.056 5.09576Z" fill="#142D21"/>
<path d="M63.0919 4.00404C63.7286 4.00404 64.2449 3.48809 64.2449 2.85163C64.2449 2.21517 63.7286 1.69922 63.0919 1.69922C62.4551 1.69922 61.9388 2.21517 61.9388 2.85163C61.9388 3.48809 62.4551 4.00404 63.0919 4.00404Z" fill="#142D21"/>
<path d="M39 67.345C41.3461 67.345 43.2479 65.4441 43.2479 63.0992C43.2479 60.7544 41.3461 58.8535 39 58.8535C36.6539 58.8535 34.7521 60.7544 34.7521 63.0992C34.7521 65.4441 36.6539 67.345 39 67.345Z" fill="#155C3A"/>
<path d="M51.056 66.3349C52.8435 66.3349 54.2925 64.8866 54.2925 63.1001C54.2925 61.3135 52.8435 59.8652 51.056 59.8652C49.2685 59.8652 47.8195 61.3135 47.8195 63.1001C47.8195 64.8866 49.2685 66.3349 51.056 66.3349Z" fill="#155C3A"/>
<path d="M63.112 65.3438C64.3521 65.3438 65.3574 64.3391 65.3574 63.0996C65.3574 61.8602 64.3521 60.8555 63.112 60.8555C61.872 60.8555 60.8667 61.8602 60.8667 63.0996C60.8667 64.3391 61.872 65.3438 63.112 65.3438Z" fill="#142D21"/>
<path d="M39 78.0002C40.5752 78.0002 41.8522 76.7239 41.8522 75.1495C41.8522 73.5751 40.5752 72.2988 39 72.2988C37.4248 72.2988 36.1478 73.5751 36.1478 75.1495C36.1478 76.7239 37.4248 78.0002 39 78.0002Z" fill="#142D21"/>
<path d="M39 56.7106C42.128 56.7106 44.6639 54.1761 44.6639 51.0496C44.6639 47.9232 42.128 45.3887 39 45.3887C35.8719 45.3887 33.3361 47.9232 33.3361 51.0496C33.3361 54.1761 35.8719 56.7106 39 56.7106Z" fill="#178B53"/>
<path d="M51.0561 55.5581C53.5474 55.5581 55.5669 53.5396 55.5669 51.0496C55.5669 48.5596 53.5474 46.541 51.0561 46.541C48.5648 46.541 46.5452 48.5596 46.5452 51.0496C46.5452 53.5396 48.5648 55.5581 51.0561 55.5581Z" fill="#155C3A"/>
<path d="M63.112 54.4265C64.9777 54.4265 66.4901 52.9149 66.4901 51.0502C66.4901 49.1855 64.9777 47.6738 63.112 47.6738C61.2463 47.6738 59.7339 49.1855 59.7339 51.0502C59.7339 52.9149 61.2463 54.4265 63.112 54.4265Z" fill="#155C3A"/>
<path d="M75.1681 53.293C76.4081 53.293 77.4134 52.2883 77.4134 51.0489C77.4134 49.8094 76.4081 48.8047 75.1681 48.8047C73.928 48.8047 72.9227 49.8094 72.9227 51.0489C72.9227 52.2883 73.928 53.293 75.1681 53.293Z" fill="#142D21"/>
<path d="M75.168 64.2521C75.8048 64.2521 76.321 63.7361 76.321 63.0997C76.321 62.4632 75.8048 61.9473 75.168 61.9473C74.5312 61.9473 74.015 62.4632 74.015 63.0997C74.015 63.7361 74.5312 64.2521 75.168 64.2521Z" fill="#142D21"/>
<path d="M51.056 77.4141C52.2961 77.4141 53.3013 76.4094 53.3013 75.17C53.3013 73.9305 52.2961 72.9258 51.056 72.9258C49.8159 72.9258 48.8107 73.9305 48.8107 75.17C48.8107 76.4094 49.8159 77.4141 51.056 77.4141Z" fill="#142D21"/>
<path d="M63.112 76.3224C63.7488 76.3224 64.265 75.8064 64.265 75.17C64.265 74.5335 63.7488 74.0176 63.112 74.0176C62.4752 74.0176 61.959 74.5335 61.959 75.17C61.959 75.8064 62.4752 76.3224 63.112 76.3224Z" fill="#142D21"/>
<path d="M26.944 66.3349C28.7315 66.3349 30.1805 64.8866 30.1805 63.1001C30.1805 61.3135 28.7315 59.8652 26.944 59.8652C25.1566 59.8652 23.7075 61.3135 23.7075 63.1001C23.7075 64.8866 25.1566 66.3349 26.944 66.3349Z" fill="#155C3A"/>
<path d="M14.8879 65.3438C16.128 65.3438 17.1332 64.3391 17.1332 63.0996C17.1332 61.8602 16.128 60.8555 14.8879 60.8555C13.6478 60.8555 12.6426 61.8602 12.6426 63.0996C12.6426 64.3391 13.6478 65.3438 14.8879 65.3438Z" fill="#142D21"/>
<path d="M14.888 76.3009C15.5248 76.3009 16.041 75.785 16.041 75.1485C16.041 74.5121 15.5248 73.9961 14.888 73.9961C14.2512 73.9961 13.735 74.5121 13.735 75.1485C13.735 75.785 14.2512 76.3009 14.888 76.3009Z" fill="#142D21"/>
<path d="M26.944 55.5581C29.4353 55.5581 31.4549 53.5396 31.4549 51.0496C31.4549 48.5596 29.4353 46.541 26.944 46.541C24.4527 46.541 22.4331 48.5596 22.4331 51.0496C22.4331 53.5396 24.4527 55.5581 26.944 55.5581Z" fill="#155C3A"/>
<path d="M14.888 54.4265C16.7537 54.4265 18.2661 52.9149 18.2661 51.0502C18.2661 49.1855 16.7537 47.6738 14.888 47.6738C13.0223 47.6738 11.5099 49.1855 11.5099 51.0502C11.5099 52.9149 13.0223 54.4265 14.888 54.4265Z" fill="#155C3A"/>
<path d="M2.85214 53.293C4.09221 53.293 5.09748 52.2883 5.09748 51.0489C5.09748 49.8094 4.09221 48.8047 2.85214 48.8047C1.61208 48.8047 0.606812 49.8094 0.606812 51.0489C0.606812 52.2883 1.61208 53.293 2.85214 53.293Z" fill="#142D21"/>
<path d="M2.85223 64.2521C3.48902 64.2521 4.00524 63.7361 4.00524 63.0997C4.00524 62.4632 3.48902 61.9473 2.85223 61.9473C2.21544 61.9473 1.69922 62.4632 1.69922 63.0997C1.69922 63.7361 2.21544 64.2521 2.85223 64.2521Z" fill="#142D21"/>
<path d="M26.9439 77.4141C28.184 77.4141 29.1893 76.4094 29.1893 75.17C29.1893 73.9305 28.184 72.9258 26.9439 72.9258C25.7039 72.9258 24.6986 73.9305 24.6986 75.17C24.6986 76.4094 25.7039 77.4141 26.9439 77.4141Z" fill="#142D21"/>
</svg>
