<svg width="272" height="56" viewBox="0 0 272 56" fill="none" xmlns="http://www.w3.org/2000/svg">
<path d="M19.324 38.0799C21.0557 38.0799 22.4595 36.6786 22.4595 34.9499C22.4595 33.2213 21.0557 31.8199 19.324 31.8199C17.5923 31.8199 16.1885 33.2213 16.1885 34.9499C16.1885 36.6786 17.5923 38.0799 19.324 38.0799Z" fill="#1AAC66"/>
<path d="M13.3538 37.7499C14.9029 37.7499 16.1587 36.4963 16.1587 34.9499C16.1587 33.4035 14.9029 32.1499 13.3538 32.1499C11.8046 32.1499 10.5488 33.4035 10.5488 34.9499C10.5488 36.4963 11.8046 37.7499 13.3538 37.7499Z" fill="#178B53"/>
<path d="M7.38301 37.0499C8.54486 37.0499 9.48672 36.1097 9.48672 34.9499C9.48672 33.7901 8.54486 32.8499 7.38301 32.8499C6.22116 32.8499 5.2793 33.7901 5.2793 34.9499C5.2793 36.1097 6.22116 37.0499 7.38301 37.0499Z" fill="#155C3A"/>
<path d="M1.41249 36.3599C2.19259 36.3599 2.82499 35.7286 2.82499 34.9499C2.82499 34.1712 2.19259 33.5399 1.41249 33.5399C0.632394 33.5399 0 34.1712 0 34.9499C0 35.7286 0.632394 36.3599 1.41249 36.3599Z" fill="#142D21"/>
<path d="M25.2747 37.7499C26.8238 37.7499 28.0796 36.4963 28.0796 34.9499C28.0796 33.4035 26.8238 32.1499 25.2747 32.1499C23.7255 32.1499 22.4697 33.4035 22.4697 34.9499C22.4697 36.4963 23.7255 37.7499 25.2747 37.7499Z" fill="#178B53"/>
<path d="M31.2453 37.0499C32.4072 37.0499 33.349 36.1097 33.349 34.9499C33.349 33.7901 32.4072 32.8499 31.2453 32.8499C30.0835 32.8499 29.1416 33.7901 29.1416 34.9499C29.1416 36.1097 30.0835 37.0499 31.2453 37.0499Z" fill="#155C3A"/>
<path d="M37.2157 36.3599C37.9958 36.3599 38.6282 35.7286 38.6282 34.9499C38.6282 34.1712 37.9958 33.5399 37.2157 33.5399C36.4356 33.5399 35.8032 34.1712 35.8032 34.9499C35.8032 35.7286 36.4356 36.3599 37.2157 36.3599Z" fill="#142D21"/>
<path d="M19.3142 25.1299C20.476 25.1299 21.4179 24.1897 21.4179 23.0299C21.4179 21.8701 20.476 20.9299 19.3142 20.9299C18.1523 20.9299 17.2104 21.8701 17.2104 23.0299C17.2104 24.1897 18.1523 25.1299 19.3142 25.1299Z" fill="#155C3A"/>
<path d="M13.3436 24.6299C14.2288 24.6299 14.9464 23.9136 14.9464 23.0299C14.9464 22.1463 14.2288 21.4299 13.3436 21.4299C12.4583 21.4299 11.7407 22.1463 11.7407 23.0299C11.7407 23.9136 12.4583 24.6299 13.3436 24.6299Z" fill="#155C3A"/>
<path d="M7.37319 24.1399C7.98731 24.1399 8.48516 23.643 8.48516 23.0299C8.48516 22.4169 7.98731 21.9199 7.37319 21.9199C6.75907 21.9199 6.26123 22.4169 6.26123 23.0299C6.26123 23.643 6.75907 24.1399 7.37319 24.1399Z" fill="#142D21"/>
<path d="M19.3139 18.4799C20.094 18.4799 20.7264 17.8486 20.7264 17.0699C20.7264 16.2912 20.094 15.6599 19.3139 15.6599C18.5338 15.6599 17.9014 16.2912 17.9014 17.0699C17.9014 17.8486 18.5338 18.4799 19.3139 18.4799Z" fill="#142D21"/>
<path d="M19.3142 31.7899C20.8634 31.7899 22.1192 30.5363 22.1192 28.9899C22.1192 27.4435 20.8634 26.1899 19.3142 26.1899C17.7651 26.1899 16.5093 27.4435 16.5093 28.9899C16.5093 30.5363 17.7651 31.7899 19.3142 31.7899Z" fill="#178B53"/>
<path d="M13.3433 31.2199C14.5771 31.2199 15.5773 30.2215 15.5773 28.9899C15.5773 27.7583 14.5771 26.7599 13.3433 26.7599C12.1095 26.7599 11.1094 27.7583 11.1094 28.9899C11.1094 30.2215 12.1095 31.2199 13.3433 31.2199Z" fill="#155C3A"/>
<path d="M7.37315 30.6599C8.29709 30.6599 9.0461 29.9122 9.0461 28.9899C9.0461 28.0676 8.29709 27.3199 7.37315 27.3199C6.4492 27.3199 5.7002 28.0676 5.7002 28.9899C5.7002 29.9122 6.4492 30.6599 7.37315 30.6599Z" fill="#155C3A"/>
<path d="M1.41226 30.0999C2.02637 30.0999 2.52422 29.6029 2.52422 28.9899C2.52422 28.3769 2.02637 27.8799 1.41226 27.8799C0.798135 27.8799 0.300293 28.3769 0.300293 28.9899C0.300293 29.6029 0.798135 30.0999 1.41226 30.0999Z" fill="#142D21"/>
<path d="M1.41232 23.5999C1.72768 23.5999 1.98332 23.3447 1.98332 23.0299C1.98332 22.7151 1.72768 22.4599 1.41232 22.4599C1.09696 22.4599 0.841309 22.7151 0.841309 23.0299C0.841309 23.3447 1.09696 23.5999 1.41232 23.5999Z" fill="#142D21"/>
<path d="M13.3434 18.1799C13.9575 18.1799 14.4554 17.683 14.4554 17.0699C14.4554 16.4569 13.9575 15.9599 13.3434 15.9599C12.7293 15.9599 12.2314 16.4569 12.2314 17.0699C12.2314 17.683 12.7293 18.1799 13.3434 18.1799Z" fill="#142D21"/>
<path d="M7.38302 17.6399C7.69838 17.6399 7.95403 17.3847 7.95403 17.0699C7.95403 16.7551 7.69838 16.4999 7.38302 16.4999C7.06766 16.4999 6.81201 16.7551 6.81201 17.0699C6.81201 17.3847 7.06766 17.6399 7.38302 17.6399Z" fill="#142D21"/>
<path d="M25.2845 24.6299C26.1697 24.6299 26.8873 23.9136 26.8873 23.0299C26.8873 22.1463 26.1697 21.4299 25.2845 21.4299C24.3993 21.4299 23.6816 22.1463 23.6816 23.0299C23.6816 23.9136 24.3993 24.6299 25.2845 24.6299Z" fill="#155C3A"/>
<path d="M31.255 24.1399C31.8691 24.1399 32.367 23.643 32.367 23.0299C32.367 22.4169 31.8691 21.9199 31.255 21.9199C30.6409 21.9199 30.1431 22.4169 30.1431 23.0299C30.1431 23.643 30.6409 24.1399 31.255 24.1399Z" fill="#142D21"/>
<path d="M25.2847 31.2199C26.5185 31.2199 27.5187 30.2215 27.5187 28.9899C27.5187 27.7583 26.5185 26.7599 25.2847 26.7599C24.051 26.7599 23.0508 27.7583 23.0508 28.9899C23.0508 30.2215 24.051 31.2199 25.2847 31.2199Z" fill="#155C3A"/>
<path d="M31.255 30.6599C32.1789 30.6599 32.9279 29.9122 32.9279 28.9899C32.9279 28.0676 32.1789 27.3199 31.255 27.3199C30.331 27.3199 29.582 28.0676 29.582 28.9899C29.582 29.9122 30.331 30.6599 31.255 30.6599Z" fill="#155C3A"/>
<path d="M37.2257 30.0999C37.8399 30.0999 38.3377 29.6029 38.3377 28.9899C38.3377 28.3769 37.8399 27.8799 37.2257 27.8799C36.6116 27.8799 36.1138 28.3769 36.1138 28.9899C36.1138 29.6029 36.6116 30.0999 37.2257 30.0999Z" fill="#142D21"/>
<path d="M37.2258 23.5999C37.5412 23.5999 37.7968 23.3447 37.7968 23.0299C37.7968 22.7151 37.5412 22.4599 37.2258 22.4599C36.9104 22.4599 36.6548 22.7151 36.6548 23.0299C36.6548 23.3447 36.9104 23.5999 37.2258 23.5999Z" fill="#142D21"/>
<path d="M25.2848 18.1799C25.8989 18.1799 26.3968 17.683 26.3968 17.0699C26.3968 16.4569 25.8989 15.9599 25.2848 15.9599C24.6707 15.9599 24.1729 16.4569 24.1729 17.0699C24.1729 17.683 24.6707 18.1799 25.2848 18.1799Z" fill="#142D21"/>
<path d="M31.2453 17.6399C31.5607 17.6399 31.8163 17.3847 31.8163 17.0699C31.8163 16.7551 31.5607 16.4999 31.2453 16.4999C30.93 16.4999 30.6743 16.7551 30.6743 17.0699C30.6743 17.3847 30.93 17.6399 31.2453 17.6399Z" fill="#142D21"/>
<path d="M19.3142 48.9699C20.476 48.9699 21.4179 48.0297 21.4179 46.8699C21.4179 45.7101 20.476 44.7699 19.3142 44.7699C18.1523 44.7699 17.2104 45.7101 17.2104 46.8699C17.2104 48.0297 18.1523 48.9699 19.3142 48.9699Z" fill="#155C3A"/>
<path d="M25.2845 48.4699C26.1697 48.4699 26.8873 47.7536 26.8873 46.8699C26.8873 45.9863 26.1697 45.2699 25.2845 45.2699C24.3993 45.2699 23.6816 45.9863 23.6816 46.8699C23.6816 47.7536 24.3993 48.4699 25.2845 48.4699Z" fill="#155C3A"/>
<path d="M31.255 47.9799C31.8691 47.9799 32.367 47.4829 32.367 46.8699C32.367 46.2569 31.8691 45.7599 31.255 45.7599C30.6409 45.7599 30.1431 46.2569 30.1431 46.8699C30.1431 47.4829 30.6409 47.9799 31.255 47.9799Z" fill="#142D21"/>
<path d="M19.3139 54.2399C20.094 54.2399 20.7264 53.6086 20.7264 52.8299C20.7264 52.0512 20.094 51.4199 19.3139 51.4199C18.5338 51.4199 17.9014 52.0512 17.9014 52.8299C17.9014 53.6086 18.5338 54.2399 19.3139 54.2399Z" fill="#142D21"/>
<path d="M19.3142 43.7099C20.8634 43.7099 22.1192 42.4563 22.1192 40.9099C22.1192 39.3635 20.8634 38.1099 19.3142 38.1099C17.7651 38.1099 16.5093 39.3635 16.5093 40.9099C16.5093 42.4563 17.7651 43.7099 19.3142 43.7099Z" fill="#178B53"/>
<path d="M25.2847 43.1399C26.5185 43.1399 27.5187 42.1415 27.5187 40.9099C27.5187 39.6783 26.5185 38.6799 25.2847 38.6799C24.051 38.6799 23.0508 39.6783 23.0508 40.9099C23.0508 42.1415 24.051 43.1399 25.2847 43.1399Z" fill="#155C3A"/>
<path d="M31.255 42.5799C32.1789 42.5799 32.9279 41.8322 32.9279 40.9099C32.9279 39.9876 32.1789 39.2399 31.255 39.2399C30.331 39.2399 29.582 39.9876 29.582 40.9099C29.582 41.8322 30.331 42.5799 31.255 42.5799Z" fill="#155C3A"/>
<path d="M37.2257 42.0199C37.8399 42.0199 38.3377 41.5229 38.3377 40.9099C38.3377 40.2969 37.8399 39.7999 37.2257 39.7999C36.6116 39.7999 36.1138 40.2969 36.1138 40.9099C36.1138 41.5229 36.6116 42.0199 37.2257 42.0199Z" fill="#142D21"/>
<path d="M37.2258 47.4399C37.5412 47.4399 37.7968 47.1847 37.7968 46.8699C37.7968 46.5551 37.5412 46.2999 37.2258 46.2999C36.9104 46.2999 36.6548 46.5551 36.6548 46.8699C36.6548 47.1847 36.9104 47.4399 37.2258 47.4399Z" fill="#142D21"/>
<path d="M25.2848 53.9499C25.8989 53.9499 26.3968 53.4529 26.3968 52.8399C26.3968 52.2269 25.8989 51.7299 25.2848 51.7299C24.6707 51.7299 24.1729 52.2269 24.1729 52.8399C24.1729 53.4529 24.6707 53.9499 25.2848 53.9499Z" fill="#142D21"/>
<path d="M31.2551 53.4099C31.5705 53.4099 31.8261 53.1547 31.8261 52.8399C31.8261 52.5251 31.5705 52.2699 31.2551 52.2699C30.9397 52.2699 30.6841 52.5251 30.6841 52.8399C30.6841 53.1547 30.9397 53.4099 31.2551 53.4099Z" fill="#142D21"/>
<path d="M13.3436 48.4699C14.2288 48.4699 14.9464 47.7536 14.9464 46.8699C14.9464 45.9863 14.2288 45.2699 13.3436 45.2699C12.4583 45.2699 11.7407 45.9863 11.7407 46.8699C11.7407 47.7536 12.4583 48.4699 13.3436 48.4699Z" fill="#155C3A"/>
<path d="M7.37319 47.9799C7.98731 47.9799 8.48516 47.4829 8.48516 46.8699C8.48516 46.2569 7.98731 45.7599 7.37319 45.7599C6.75907 45.7599 6.26123 46.2569 6.26123 46.8699C6.26123 47.4829 6.75907 47.9799 7.37319 47.9799Z" fill="#142D21"/>
<path d="M7.37325 53.3999C7.68861 53.3999 7.94426 53.1447 7.94426 52.8299C7.94426 52.5151 7.68861 52.2599 7.37325 52.2599C7.0579 52.2599 6.80225 52.5151 6.80225 52.8299C6.80225 53.1447 7.0579 53.3999 7.37325 53.3999Z" fill="#142D21"/>
<path d="M13.3433 43.1399C14.5771 43.1399 15.5773 42.1415 15.5773 40.9099C15.5773 39.6783 14.5771 38.6799 13.3433 38.6799C12.1095 38.6799 11.1094 39.6783 11.1094 40.9099C11.1094 42.1415 12.1095 43.1399 13.3433 43.1399Z" fill="#155C3A"/>
<path d="M7.37315 42.5799C8.29709 42.5799 9.0461 41.8322 9.0461 40.9099C9.0461 39.9876 8.29709 39.2399 7.37315 39.2399C6.4492 39.2399 5.7002 39.9876 5.7002 40.9099C5.7002 41.8322 6.4492 42.5799 7.37315 42.5799Z" fill="#155C3A"/>
<path d="M1.41226 42.0199C2.02637 42.0199 2.52422 41.5229 2.52422 40.9099C2.52422 40.2969 2.02637 39.7999 1.41226 39.7999C0.798135 39.7999 0.300293 40.2969 0.300293 40.9099C0.300293 41.5229 0.798135 42.0199 1.41226 42.0199Z" fill="#142D21"/>
<path d="M1.41232 47.4399C1.72768 47.4399 1.98332 47.1847 1.98332 46.8699C1.98332 46.5551 1.72768 46.2999 1.41232 46.2999C1.09696 46.2999 0.841309 46.5551 0.841309 46.8699C0.841309 47.1847 1.09696 47.4399 1.41232 47.4399Z" fill="#142D21"/>
<path d="M13.3434 53.9499C13.9575 53.9499 14.4554 53.4529 14.4554 52.8399C14.4554 52.2269 13.9575 51.7299 13.3434 51.7299C12.7293 51.7299 12.2314 52.2269 12.2314 52.8399C12.2314 53.4529 12.7293 53.9499 13.3434 53.9499Z" fill="#142D21"/>
<path d="M200.023 26.97C198.43 26.97 197.128 27.48 196.106 28.5C195.084 29.52 194.573 31.06 194.573 33.12V46.04H190.276V23.39H194.573V26.09C194.704 25.89 194.814 25.67 194.954 25.48C196.296 23.76 198.22 22.91 200.734 22.91C201.876 22.91 202.918 23.11 203.84 23.51C204.491 23.79 205.102 24.21 205.693 24.75L203.589 28.39C203.119 27.89 202.598 27.53 202.027 27.3C201.456 27.08 200.784 26.97 200.023 26.97ZM180.499 13.91H180.428L176.201 16.35V23.4H170.611V27.31H176.201V46.04H180.499V27.3H186.089V23.39H180.499V13.91ZM241.857 13.91H241.807L237.559 16.36V23.4H231.969V27.31H237.559V46.04H241.857V27.3H247.447V23.39H241.857V13.91ZM223.995 36.36C223.995 38.24 223.515 39.71 222.563 40.77C221.611 41.84 220.289 42.37 218.596 42.37C217.484 42.37 216.512 42.13 215.681 41.66C214.849 41.19 214.228 40.49 213.797 39.59C213.367 38.68 213.156 37.61 213.156 36.37V23.4H208.859V36.56C208.859 38.53 209.269 40.26 210.101 41.76C210.932 43.25 212.084 44.42 213.567 45.26C215.05 46.1 216.723 46.52 218.606 46.52C220.489 46.52 222.192 46.1 223.645 45.26C225.097 44.42 226.229 43.25 227.061 41.76C227.892 40.27 228.303 38.53 228.303 36.56V23.4H224.005V36.37L223.995 36.36ZM270.838 27.25C270.077 25.88 269.035 24.82 267.713 24.06C266.39 23.3 264.868 22.92 263.154 22.92C261.441 22.92 259.889 23.31 258.526 24.09C257.494 24.68 256.633 25.42 255.952 26.32V12H251.654V46.04H255.952V32.84C255.952 31.7 256.202 30.68 256.713 29.79C257.224 28.9 257.925 28.2 258.817 27.69C259.708 27.18 260.73 26.93 261.872 26.93C263.595 26.93 264.998 27.49 266.08 28.6C267.162 29.71 267.702 31.13 267.702 32.84V46.04H272V31.98C272 30.2 271.619 28.63 270.858 27.26L270.838 27.25ZM167.175 31.97V46.03H162.878V32.83C162.878 31.11 162.337 29.7 161.255 28.59C160.173 27.48 158.77 26.92 157.047 26.92C155.905 26.92 154.883 27.17 153.992 27.68C153.1 28.19 152.399 28.89 151.888 29.78C151.377 30.67 151.127 31.69 151.127 32.83V46.03H146.829V23.39H151.127V26.31C151.818 25.41 152.67 24.66 153.701 24.08C155.074 23.3 156.616 22.91 158.33 22.91C160.043 22.91 161.565 23.34 162.888 24.2C164.21 25.06 165.252 26.18 166.013 27.56C166.774 28.94 167.155 30.41 167.155 31.97H167.175ZM66.6076 23.39H70.9052V45.13C70.9052 47.29 70.4043 49.18 69.4026 50.8C68.4008 52.42 66.9983 53.69 65.1952 54.61C63.392 55.53 61.3183 55.99 58.9642 55.99C56.61 55.99 54.5764 55.56 52.7833 54.7C50.9801 53.84 49.5475 52.64 48.4656 51.08L51.2305 48.27C52.1521 49.45 53.2541 50.34 54.5263 50.96C55.7986 51.58 57.3112 51.89 59.0643 51.89C61.3884 51.89 63.2317 51.28 64.5841 50.05C65.9365 48.83 66.6177 47.18 66.6177 45.12V42.08C65.8463 43.13 64.8646 43.98 63.6524 44.59C62.28 45.29 60.7273 45.64 58.9742 45.64C56.9005 45.64 55.0473 45.15 53.4144 44.16C51.7715 43.18 50.4792 41.82 49.5175 40.08C48.5658 38.35 48.085 36.4 48.085 34.24C48.085 32.08 48.5658 30.15 49.5175 28.45C50.4692 26.75 51.7715 25.4 53.4144 24.4C55.0573 23.4 56.9105 22.9 58.9742 22.9C60.7573 22.9 62.3301 23.25 63.7025 23.95C64.8846 24.55 65.8463 25.38 66.6177 26.4V23.38L66.6076 23.39ZM66.8381 34.31C66.8381 32.85 66.5475 31.57 65.9565 30.47C65.3655 29.37 64.544 28.52 63.4922 27.9C62.4403 27.28 61.1981 26.97 59.7656 26.97C58.333 26.97 57.0708 27.28 55.9889 27.9C54.907 28.52 54.0555 29.38 53.4344 30.47C52.8133 31.57 52.5028 32.83 52.5028 34.26C52.5028 35.69 52.8133 36.96 53.4344 38.07C54.0555 39.18 54.917 40.05 56.0089 40.67C57.1109 41.29 58.3731 41.6 59.8056 41.6C61.2382 41.6 62.4403 41.3 63.5022 40.69C64.564 40.09 65.3855 39.24 65.9665 38.14C66.5375 37.04 66.828 35.76 66.828 34.3L66.8381 34.31ZM140.789 28.3C141.7 29.99 142.151 31.89 142.151 34.02C142.151 34.34 142.131 34.68 142.101 35.04C142.071 35.41 142.001 35.83 141.911 36.3H124.159C124.309 37.17 124.57 37.98 124.951 38.71C125.592 39.9 126.493 40.82 127.675 41.47C128.857 42.12 130.21 42.45 131.733 42.45C133.005 42.45 134.177 42.23 135.239 41.78C136.301 41.33 137.222 40.67 137.984 39.78L140.759 42.59C139.677 43.86 138.344 44.83 136.771 45.5C135.199 46.17 133.516 46.5 131.733 46.5C129.469 46.5 127.435 45.98 125.622 44.95C123.809 43.92 122.376 42.51 121.324 40.73C120.272 38.95 119.751 36.93 119.751 34.68C119.751 32.43 120.272 30.45 121.304 28.67C122.336 26.89 123.738 25.48 125.512 24.45C127.275 23.42 129.258 22.9 131.452 22.9C133.646 22.9 135.409 23.38 137.012 24.33C138.625 25.28 139.877 26.6 140.789 28.29V28.3ZM137.944 32.74C137.823 31.8 137.593 30.96 137.222 30.24C136.681 29.18 135.92 28.35 134.928 27.76C133.936 27.17 132.744 26.88 131.342 26.88C129.939 26.88 128.587 27.2 127.475 27.83C126.363 28.47 125.502 29.36 124.901 30.5C124.55 31.17 124.309 31.93 124.159 32.74H137.934H137.944ZM115.193 28.3C116.105 29.99 116.556 31.89 116.556 34.02C116.556 34.34 116.536 34.68 116.506 35.04C116.476 35.41 116.406 35.83 116.315 36.3H98.5741C98.7243 37.17 98.9848 37.98 99.3655 38.71C100.007 39.9 100.908 40.82 102.09 41.47C103.272 42.12 104.625 42.45 106.147 42.45C107.42 42.45 108.592 42.23 109.654 41.78C110.715 41.33 111.637 40.67 112.398 39.78L115.163 42.59C114.081 43.86 112.749 44.83 111.176 45.5C109.604 46.17 107.921 46.5 106.137 46.5C103.873 46.5 101.84 45.98 100.027 44.95C98.2134 43.92 96.7809 42.51 95.729 40.73C94.6772 38.95 94.1563 36.93 94.1563 34.68C94.1563 32.43 94.6772 30.45 95.709 28.67C96.7408 26.89 98.1433 25.48 99.9064 24.45C101.67 23.42 103.653 22.9 105.857 22.9C108.061 22.9 109.814 23.38 111.417 24.33C113.03 25.28 114.282 26.6 115.193 28.29V28.3ZM112.358 32.74C112.238 31.8 112.008 30.96 111.637 30.24C111.096 29.18 110.335 28.35 109.343 27.76C108.351 27.17 107.159 26.88 105.757 26.88C104.354 26.88 103.002 27.2 101.89 27.83C100.778 28.47 99.9164 29.36 99.3154 30.5C98.9647 31.17 98.7243 31.93 98.5741 32.74H112.358ZM92.6236 24.75C92.0325 24.21 91.4214 23.79 90.7703 23.51C89.8487 23.11 88.8168 22.91 87.6648 22.91C85.1504 22.91 83.227 23.77 81.8846 25.48C81.7343 25.67 81.6342 25.89 81.5039 26.09V23.38H77.2064V46.02H81.5039V33.1C81.5039 31.03 82.0148 29.49 83.0366 28.48C84.0584 27.46 85.3607 26.95 86.9535 26.95C87.7149 26.95 88.3861 27.06 88.9571 27.28C89.5281 27.5 90.049 27.86 90.5198 28.37L92.6236 24.73V24.75Z" fill="#142D21"/>
</svg>
