<?xml version="1.0" encoding="UTF-8"?>
<svg id="Layer_1" xmlns="http://www.w3.org/2000/svg" version="1.1" viewBox="0 0 232 61">
  <!-- Generator: Adobe Illustrator 30.0.0, SVG Export Plug-In . SVG Version: 2.1.1 Build 123)  -->
  <g>
    <path d="M80.67,28.64h-8.44v2.05h6.31c-.88,6.27-8.54,7.78-13.25,4.49-1.77-1.23-3.44-3.82-3.64-5.99-.59-6.35,5.63-10.69,11.53-9.01,1.92.55,3.48,1.62,4.97,2.91l1.5-1.49c-1.65-1.52-3.61-2.77-5.8-3.35-3.37-.89-7.73-.36-10.46,1.93-7.34,6.15-3.5,17.69,5.93,18.54,6.54.59,11.03-2.79,11.44-9.38.01-.2.32-.61-.08-.72Z"/>
    <path d="M92.34,28.95c3.75-.26,6.29-3.21,5.42-6.99-.52-2.26-2.66-3.86-4.93-4.06-.63-.06-1.45-.13-2.05-.16-1.88-.09-3.81.08-5.69,0-.14-.01-.36.14-.39.24v20.75h2.21v-9.79c.32.03.71-.07,1,.02.4.12,1.49,1.83,1.83,2.27,1.96,2.5,3.93,5.02,5.92,7.49h2.45l-7.42-9.71,1.65-.08ZM86.9,26.9v-7.1h4.97s.1.12.19.13c.96.12,1.7.15,2.5.82,2.04,1.71,1.32,5.09-1.18,5.93-.13.04-.83.23-.88.23h-5.6Z"/>
    <path d="M23.07,17.74l-9.87,21h2.37l3.25-6.95,8.91.08,3.31,6.87h2.21l-9.64-20.98-.53-.02ZM19.82,29.74s.37-1.04.44-1.22c.88-2.01,1.93-3.99,2.84-6,.09-.21-.02-.26.34-.21l3.31,7.42h-6.94Z"/>
    <path d="M109.72,17.74l-9.87,21h2.37l3.25-6.95,8.91.08,3.31,6.87h2.21l-9.64-20.98-.53-.02ZM113.42,29.74h-6.94l3.39-7.42c.31-.07.23.12.31.32.8,1.89,1.75,3.72,2.64,5.57l.6,1.53Z"/>
    <path d="M126.12,25.49c-1.11-.95-2.19-2.21-1.74-3.8.04-.14.51-.97.6-1.06.15-.15,1.08-.63,1.31-.67,2.13-.31,3.23.8,4.42,2.35.59-.28,1.04-.92,1.66-1.09-.86-1.44-2.57-3.15-4.33-3.32-2.4-.23-4.67.59-5.53,3-1,2.81.66,4.82,2.69,6.48,1.96,1.6,5.92,3.85,5.26,6.84-.22,1.02-1.35,2.08-2.33,2.4-2.54.84-4.28-1.08-5.45-3.08l-1.59.94c-.08.12.19.55.27.69.77,1.31,2.02,2.64,3.45,3.18,4.88,1.86,9.89-2.89,7.08-7.71-1.35-2.32-3.79-3.48-5.74-5.15Z"/>
    <path d="M139.22,25.49c-1.07-.91-2.04-2-1.78-3.52.14-.83,1.1-1.88,1.94-2,2.14-.31,3.24.78,4.42,2.36.46-.32.97-.61,1.4-.97.12-.1.33-.15.26-.37-.59-.58-1.02-1.29-1.65-1.82-1.38-1.16-2.92-1.48-4.7-1.23-2.69.38-4.37,3.47-3.55,6.01,1.07,3.3,5.76,4.76,7.52,7.63,1.23,2.01.32,4.27-1.87,5.03-2.57.9-4.23-1.13-5.45-3.08l-1.66,1.02c.95,1.61,2.08,3.16,3.9,3.83,4.59,1.7,9.45-2.58,7.27-7.27-1.21-2.6-3.99-3.87-6.04-5.63Z"/>
    <path d="M37.98,17.75c-.38.05-2.21-.16-2.21.24v20.52s.22.24.24.24h10.02v-2.05h-8.05v-18.94Z"/>
    <path d="M50.76,17.99c0-.31-1.34-.27-1.66-.24-.16.01-.55.06-.55.24v20.75h10.26v-2.05h-8.05v-18.7Z"/>
    <path d="M12.49,17.75H1.2v2.05h4.5s.24.22.24.24v18.7h2.05v-18.94h4.73c-.04-.36.15-2.05-.24-2.05Z"/>
    <path d="M169.77,31.55c-.36-6.35-3.45-13.15-7.2-18.21-1.06-1.43-2.24-2.82-3.46-4.11-.26.16.06.35.16.47,1.72,2.24,3.28,4.66,4.42,7.26.47,1.07,1.3,3.09,1.5,4.19.03.16.09.43-.16.39-.06-.3-.15-.62-.28-.9-1.53-3.29-3.56-6.49-5.87-9.28-.14-.17-1.34-1.58-1.42-1.5l1.87,2.79c1.77,2.82,2.88,5.73,3.9,8.88.09.28.17.49-.17.17-1.79-4.33-4.49-8.19-7.49-11.76l-.63-.55c-.1.12.44.78.56.94.49.67,1.02,1.3,1.47,2.01,1.66,2.6,3.26,6.05,4.06,9.04.04.17.22.5-.09.48-2.1-5.28-5.59-10.09-9.63-14.05-.06.29.16.37.31.55,3.38,3.93,6.66,9.33,7.41,14.52.29,1.98.36,4.67-.6,6.5-.77,1.47-2.16,2.47-2.64,4.15-.35,1.22-.29,2.79-.07,4.03.06.31.16,1.1.4,1.17h5.74c.32-1.06.62-2.14,1-3.18.06-.17.05-.47.28-.43v3.63c.28-.02.71.1.87-.15.41-.99.69-2.03,1.06-3.04.06-.17.05-.47.28-.43v3.63h.78c.43-1.13.87-2.24,1.32-3.35.07-.17.05-.47.28-.43v3.79h1.41c.49-2.33.78-4.8.65-7.19Z"/>
    <path d="M153.85,30.32c.56-.95,1.47-1.74,2.1-2.64,2.52-3.62,1.18-7.37-.88-10.78-.47-.77-1.07-1.7-1.71-2.31.59,2.32.69,4.81.12,7.15-.7,2.91-2.72,5.35-2.97,8.39-.28,3.32.4,5.9,3.17,7.89.13.1.9.6.94.56.06-.29-.08-.46-.18-.69-1.08-2.51-2.12-4.99-.58-7.58Z"/>
  </g>
  <g>
    <path d="M7.99,54.33h-2.83v-8.73h2.91c.85,0,1.59.17,2.2.52s1.08.85,1.41,1.5c.33.65.49,1.43.49,2.33s-.17,1.69-.5,2.34c-.33.65-.81,1.16-1.43,1.51s-1.38.53-2.27.53ZM6.48,53.18h1.44c.67,0,1.22-.13,1.66-.38.44-.25.77-.62.99-1.1s.33-1.06.33-1.75-.11-1.27-.33-1.74c-.22-.48-.54-.84-.97-1.09-.43-.25-.96-.37-1.6-.37h-1.52v6.43Z"/>
    <path d="M14.36,46.78c-.22,0-.41-.07-.57-.22s-.24-.33-.24-.53.08-.39.24-.54c.16-.15.35-.22.57-.22s.41.08.57.22c.16.15.24.33.24.54s-.08.38-.24.53-.35.22-.57.22ZM13.72,54.33v-6.55h1.27v6.55h-1.27Z"/>
    <path d="M21.61,49.39l-1.15.2c-.05-.15-.12-.29-.23-.42-.1-.13-.24-.24-.42-.33-.18-.08-.4-.13-.66-.13-.36,0-.66.08-.9.24-.24.16-.36.37-.36.62,0,.22.08.39.24.53.16.13.42.24.78.33l1.04.24c.6.14,1.05.35,1.35.64s.44.67.44,1.13c0,.39-.11.74-.34,1.05-.23.31-.54.54-.94.72-.4.17-.87.26-1.4.26-.73,0-1.33-.16-1.79-.47-.46-.31-.75-.76-.85-1.34l1.23-.19c.08.32.23.56.47.73.24.16.55.25.93.25.42,0,.75-.09,1-.26s.38-.39.38-.64c0-.21-.08-.38-.23-.52-.15-.14-.38-.25-.7-.32l-1.11-.24c-.61-.14-1.06-.36-1.35-.67-.29-.3-.44-.69-.44-1.15,0-.39.11-.72.32-1.01.22-.29.51-.52.89-.68.38-.16.82-.25,1.31-.25.71,0,1.26.15,1.67.46.41.31.67.71.81,1.23Z"/>
    <path d="M26.19,47.79v1.02h-3.58v-1.02h3.58ZM23.57,46.22h1.27v6.19c0,.25.04.43.11.56.07.12.17.21.29.25.12.04.25.07.39.07.1,0,.19,0,.27-.02.08-.01.14-.03.18-.03l.23,1.05c-.07.03-.18.06-.32.09-.14.03-.31.05-.51.05-.34,0-.65-.05-.94-.18-.29-.12-.52-.32-.7-.58-.18-.26-.27-.59-.27-.98v-6.46Z"/>
    <path d="M28.24,46.78c-.22,0-.41-.07-.57-.22s-.24-.33-.24-.53.08-.39.24-.54c.16-.15.35-.22.57-.22s.41.08.57.22c.16.15.24.33.24.54s-.08.38-.24.53-.35.22-.57.22ZM27.6,54.33v-6.55h1.27v6.55h-1.27Z"/>
    <path d="M31.86,50.45v3.89h-1.27v-6.55h1.22v1.07h.08c.15-.35.39-.62.71-.83.32-.21.73-.32,1.22-.32.45,0,.84.09,1.17.28.34.19.6.46.78.83.18.37.28.82.28,1.36v4.16h-1.27v-4.01c0-.47-.12-.85-.37-1.11s-.59-.4-1.02-.4c-.3,0-.56.06-.79.19-.23.13-.41.31-.54.56-.13.25-.2.54-.2.89Z"/>
    <path d="M40.51,54.47c-.63,0-1.18-.14-1.63-.43-.46-.29-.81-.69-1.05-1.2-.24-.51-.37-1.09-.37-1.75s.12-1.25.38-1.76.6-.91,1.06-1.2.99-.43,1.61-.43c.5,0,.94.09,1.33.28.39.18.7.44.94.77.24.33.38.71.43,1.16h-1.24c-.07-.31-.22-.57-.47-.79-.24-.22-.57-.33-.97-.33-.35,0-.67.09-.93.28-.27.19-.47.45-.62.79-.15.34-.22.75-.22,1.21s.07.89.22,1.24c.14.35.35.62.62.81s.58.29.94.29c.24,0,.46-.04.66-.13.2-.09.36-.22.5-.39.13-.17.23-.37.28-.61h1.24c-.05.42-.18.8-.41,1.13s-.54.59-.92.78c-.39.19-.84.29-1.35.29Z"/>
    <path d="M47.62,47.79v1.02h-3.58v-1.02h3.58ZM45,46.22h1.27v6.19c0,.25.04.43.11.56.07.12.17.21.29.25.12.04.25.07.39.07.1,0,.19,0,.27-.02.08-.01.14-.03.18-.03l.23,1.05c-.07.03-.18.06-.32.09-.14.03-.31.05-.51.05-.34,0-.65-.05-.94-.18-.29-.12-.52-.32-.7-.58-.18-.26-.27-.59-.27-.98v-6.46Z"/>
    <path d="M55.13,54.33h-2.83v-8.73h2.91c.85,0,1.59.17,2.2.52s1.08.85,1.41,1.5c.33.65.49,1.43.49,2.33s-.17,1.69-.5,2.34c-.33.65-.81,1.16-1.43,1.51s-1.38.53-2.27.53ZM53.62,53.18h1.44c.67,0,1.22-.13,1.66-.38.44-.25.77-.62.99-1.1s.33-1.06.33-1.75-.11-1.27-.33-1.74c-.22-.48-.54-.84-.97-1.09-.43-.25-.96-.37-1.6-.37h-1.52v6.43Z"/>
    <path d="M62.77,54.48c-.41,0-.79-.08-1.12-.23-.33-.16-.6-.38-.79-.68-.19-.3-.29-.66-.29-1.09,0-.37.07-.67.21-.91.14-.24.33-.43.58-.57.24-.14.51-.24.81-.32.3-.07.6-.12.91-.16.39-.04.71-.08.95-.11.24-.03.42-.08.53-.15s.17-.18.17-.33v-.03c0-.37-.1-.66-.31-.87-.21-.2-.52-.31-.93-.31s-.77.09-1.01.28c-.25.19-.42.4-.51.63l-1.2-.27c.14-.4.35-.72.62-.97.27-.25.59-.42.95-.54s.73-.17,1.13-.17c.26,0,.54.03.83.09s.57.17.83.33c.26.16.47.39.63.69.17.3.25.69.25,1.17v4.35h-1.24v-.89h-.05c-.08.16-.21.33-.37.49-.16.16-.38.29-.63.4-.26.1-.57.16-.93.16ZM63.05,53.46c.35,0,.65-.07.91-.21.25-.14.44-.32.58-.55.13-.23.2-.47.2-.73v-.84s-.13.09-.26.12c-.13.04-.28.07-.44.1-.16.03-.33.05-.48.07s-.29.04-.39.05c-.25.03-.47.08-.68.16s-.37.18-.49.32c-.12.14-.18.32-.18.55,0,.32.12.55.35.71.23.16.53.24.89.24Z"/>
    <path d="M70.75,47.79v1.02h-3.58v-1.02h3.58ZM68.13,46.22h1.27v6.19c0,.25.04.43.11.56.07.12.17.21.29.25.12.04.25.07.39.07.1,0,.19,0,.27-.02.08-.01.14-.03.18-.03l.23,1.05c-.07.03-.18.06-.32.09-.14.03-.31.05-.51.05-.34,0-.65-.05-.94-.18-.29-.12-.52-.32-.7-.58-.18-.26-.27-.59-.27-.98v-6.46Z"/>
    <path d="M74.06,54.48c-.41,0-.79-.08-1.12-.23-.33-.16-.6-.38-.79-.68-.19-.3-.29-.66-.29-1.09,0-.37.07-.67.21-.91.14-.24.33-.43.58-.57.24-.14.51-.24.81-.32.3-.07.6-.12.91-.16.39-.04.71-.08.95-.11.24-.03.42-.08.53-.15s.17-.18.17-.33v-.03c0-.37-.1-.66-.31-.87-.21-.2-.52-.31-.93-.31s-.77.09-1.01.28c-.25.19-.42.4-.51.63l-1.2-.27c.14-.4.35-.72.62-.97.27-.25.59-.42.95-.54s.73-.17,1.13-.17c.26,0,.54.03.83.09s.57.17.83.33c.26.16.47.39.63.69.17.3.25.69.25,1.17v4.35h-1.24v-.89h-.05c-.08.16-.21.33-.37.49-.16.16-.38.29-.63.4-.26.1-.57.16-.93.16ZM74.34,53.46c.35,0,.65-.07.91-.21.25-.14.44-.32.58-.55.13-.23.2-.47.2-.73v-.84s-.13.09-.26.12c-.13.04-.28.07-.44.1-.16.03-.33.05-.48.07s-.29.04-.39.05c-.25.03-.47.08-.68.16s-.37.18-.49.32c-.12.14-.18.32-.18.55,0,.32.12.55.35.71.23.16.53.24.89.24Z"/>
    <path d="M82.81,46.78c-.22,0-.41-.07-.57-.22s-.24-.33-.24-.53.08-.39.24-.54c.16-.15.35-.22.57-.22s.41.08.57.22c.16.15.24.33.24.54s-.08.38-.24.53-.35.22-.57.22ZM82.17,54.33v-6.55h1.27v6.55h-1.27Z"/>
    <path d="M86.43,50.45v3.89h-1.27v-6.55h1.22v1.07h.08c.15-.35.39-.62.71-.83.32-.21.73-.32,1.22-.32.45,0,.84.09,1.17.28.34.19.6.46.78.83.18.37.28.82.28,1.36v4.16h-1.27v-4.01c0-.47-.12-.85-.37-1.11s-.59-.4-1.02-.4c-.3,0-.56.06-.79.19-.23.13-.41.31-.54.56-.13.25-.2.54-.2.89Z"/>
    <path d="M95.6,54.33v-8.73h3.2c.62,0,1.13.1,1.54.3s.71.48.91.82c.2.35.3.73.3,1.17,0,.36-.07.67-.2.92-.13.25-.31.45-.54.6-.22.15-.47.26-.73.33v.08c.29.01.57.11.85.28s.51.42.69.73c.18.32.27.7.27,1.15s-.1.85-.31,1.2c-.21.35-.53.63-.97.84s-.99.31-1.67.31h-3.35ZM96.92,49.38h1.76c.3,0,.56-.06.8-.17s.43-.27.57-.48.21-.45.21-.73c0-.36-.13-.66-.38-.91s-.64-.37-1.16-.37h-1.8v2.65ZM96.92,53.21h1.9c.63,0,1.08-.12,1.35-.37.27-.24.41-.55.41-.92,0-.28-.07-.53-.21-.76-.14-.23-.34-.41-.59-.55-.26-.14-.56-.21-.91-.21h-1.95v2.8Z"/>
    <path d="M104.62,45.61v8.73h-1.27v-8.73h1.27Z"/>
    <path d="M109.16,54.47c-.65,0-1.2-.14-1.66-.42-.46-.28-.82-.67-1.07-1.17-.25-.5-.38-1.1-.38-1.78s.13-1.26.38-1.77c.25-.51.6-.91,1.06-1.2s.98-.43,1.59-.43c.37,0,.73.06,1.07.18s.66.31.93.58c.28.26.49.6.65,1.02s.24.92.24,1.51v.45h-5.2v-.95h3.96c0-.33-.07-.63-.21-.89-.14-.26-.33-.46-.57-.62-.25-.15-.53-.23-.86-.23-.36,0-.67.09-.94.26s-.47.4-.61.68c-.14.28-.22.58-.22.91v.75c0,.44.08.81.23,1.12.16.31.37.54.65.7.28.16.6.24.98.24.24,0,.46-.03.66-.1.2-.07.37-.17.52-.31.15-.14.26-.31.33-.52l1.21.22c-.1.36-.27.67-.52.93-.25.27-.56.47-.93.62-.37.15-.8.22-1.28.22Z"/>
    <path d="M114.66,50.45v3.89h-1.27v-6.55h1.22v1.07h.08c.15-.35.39-.62.71-.83s.73-.32,1.22-.32c.45,0,.84.09,1.17.28.33.19.59.46.78.83.18.37.28.82.28,1.36v4.16h-1.27v-4.01c0-.47-.12-.85-.37-1.11-.25-.27-.59-.4-1.02-.4-.3,0-.56.06-.79.19s-.41.31-.54.56c-.13.25-.2.54-.2.89Z"/>
    <path d="M123,54.46c-.53,0-1-.14-1.41-.41-.41-.27-.74-.66-.97-1.16s-.35-1.11-.35-1.82.12-1.31.36-1.82.56-.89.98-1.16c.41-.27.88-.4,1.41-.4.41,0,.73.07.98.2.25.14.44.29.58.47.14.18.25.34.32.47h.08v-3.24h1.27v8.73h-1.24v-1.02h-.11c-.08.14-.19.3-.33.48-.14.18-.34.33-.59.47s-.57.2-.97.2ZM123.28,53.38c.37,0,.68-.1.93-.29.25-.19.45-.46.58-.81s.2-.75.2-1.21-.07-.85-.2-1.19-.32-.61-.58-.8-.57-.29-.94-.29-.7.1-.96.3c-.25.2-.45.47-.58.81-.13.34-.19.73-.19,1.16s.06.83.2,1.18c.13.35.33.63.58.83s.57.3.95.3Z"/>
    <path d="M130.88,54.47c-.65,0-1.2-.14-1.66-.42-.46-.28-.82-.67-1.07-1.17-.25-.5-.38-1.1-.38-1.78s.13-1.26.38-1.77c.25-.51.6-.91,1.06-1.2s.98-.43,1.59-.43c.37,0,.73.06,1.07.18s.66.31.93.58c.28.26.49.6.65,1.02s.24.92.24,1.51v.45h-5.2v-.95h3.96c0-.33-.07-.63-.21-.89-.14-.26-.33-.46-.57-.62-.25-.15-.53-.23-.86-.23-.36,0-.67.09-.94.26s-.47.4-.61.68c-.14.28-.22.58-.22.91v.75c0,.44.08.81.23,1.12.16.31.37.54.65.7.28.16.6.24.98.24.24,0,.46-.03.66-.1.2-.07.37-.17.52-.31.15-.14.26-.31.33-.52l1.21.22c-.1.36-.27.67-.52.93-.25.27-.56.47-.93.62-.37.15-.8.22-1.28.22Z"/>
    <path d="M137.56,54.46c-.53,0-1-.14-1.41-.41-.41-.27-.74-.66-.97-1.16s-.35-1.11-.35-1.82.12-1.31.36-1.82.56-.89.98-1.16c.41-.27.88-.4,1.41-.4.41,0,.73.07.98.2.25.14.44.29.58.47.14.18.25.34.32.47h.08v-3.24h1.27v8.73h-1.24v-1.02h-.11c-.08.14-.19.3-.33.48-.14.18-.34.33-.59.47s-.57.2-.97.2ZM137.84,53.38c.37,0,.68-.1.93-.29.25-.19.45-.46.58-.81s.2-.75.2-1.21-.07-.85-.2-1.19-.32-.61-.58-.8-.57-.29-.94-.29-.7.1-.96.3c-.25.2-.45.47-.58.81-.13.34-.19.73-.19,1.16s.06.83.2,1.18c.13.35.33.63.58.83s.57.3.95.3Z"/>
    <path d="M145.47,46.74v-1.13h6.75v1.13h-2.72v7.59h-1.31v-7.59h-2.72Z"/>
    <path d="M152.92,54.33v-6.55h1.23v1.04h.07c.12-.35.33-.63.63-.83s.65-.3,1.03-.3c.08,0,.17,0,.28,0s.2.01.26.02v1.22c-.05-.01-.14-.03-.27-.05-.13-.02-.26-.03-.39-.03-.3,0-.57.06-.8.19-.23.13-.42.3-.56.52-.14.22-.2.48-.2.76v4h-1.27Z"/>
    <path d="M159.38,54.48c-.42,0-.79-.08-1.12-.23-.34-.16-.6-.38-.79-.68s-.29-.66-.29-1.09c0-.37.07-.67.21-.91.14-.24.33-.43.58-.57.24-.14.51-.24.81-.32.3-.07.6-.12.91-.16.39-.04.71-.08.96-.11.24-.03.42-.08.53-.15s.17-.18.17-.33v-.03c0-.37-.1-.66-.31-.87-.21-.2-.52-.31-.93-.31s-.77.09-1.01.28c-.25.19-.42.4-.51.63l-1.2-.27c.14-.4.35-.72.62-.97.27-.25.59-.42.95-.54.36-.11.73-.17,1.13-.17.26,0,.54.03.83.09s.57.17.83.33c.26.16.47.39.63.69s.25.69.25,1.17v4.35h-1.24v-.89h-.05c-.08.16-.21.33-.37.49s-.38.29-.63.4c-.26.1-.57.16-.93.16ZM159.66,53.46c.35,0,.65-.07.91-.21.25-.14.44-.32.58-.55.13-.23.2-.47.2-.73v-.84s-.13.09-.26.12c-.13.04-.28.07-.44.1-.17.03-.33.05-.48.07s-.29.04-.39.05c-.25.03-.47.08-.68.16s-.36.18-.49.32-.18.32-.18.55c0,.32.12.55.35.71.23.16.53.24.89.24Z"/>
    <path d="M165.58,50.45v3.89h-1.27v-6.55h1.22v1.07h.08c.15-.35.39-.62.71-.83s.73-.32,1.22-.32c.45,0,.84.09,1.17.28.33.19.59.46.78.83.18.37.28.82.28,1.36v4.16h-1.27v-4.01c0-.47-.12-.85-.37-1.11s-.59-.4-1.02-.4c-.3,0-.56.06-.79.19s-.41.31-.54.56c-.13.25-.2.54-.2.89Z"/>
    <path d="M176.38,49.39l-1.16.2c-.05-.15-.12-.29-.23-.42-.1-.13-.24-.24-.42-.33-.18-.08-.4-.13-.66-.13-.36,0-.66.08-.9.24-.24.16-.36.37-.36.62,0,.22.08.39.24.53s.42.24.78.33l1.04.24c.6.14,1.05.35,1.35.64.29.29.44.67.44,1.13,0,.39-.11.74-.34,1.05-.23.31-.54.54-.94.72-.4.17-.87.26-1.4.26-.73,0-1.33-.16-1.79-.47-.46-.31-.75-.76-.85-1.34l1.23-.19c.08.32.23.56.47.73.24.16.55.25.93.25.42,0,.75-.09,1-.26s.38-.39.38-.64c0-.21-.08-.38-.23-.52-.15-.14-.38-.25-.7-.32l-1.11-.24c-.61-.14-1.06-.36-1.35-.67-.29-.3-.44-.69-.44-1.15,0-.39.11-.72.32-1.01s.51-.52.9-.68.82-.25,1.31-.25c.71,0,1.26.15,1.67.46.41.31.67.71.81,1.23Z"/>
    <path d="M177.9,56.79v-9h1.24v1.06h.11c.07-.14.18-.29.32-.47.14-.18.33-.34.58-.47.25-.13.57-.2.98-.2.53,0,1,.13,1.41.4.42.27.74.65.98,1.16s.36,1.11.36,1.82-.12,1.31-.35,1.82c-.24.5-.56.89-.97,1.16s-.88.41-1.41.41c-.4,0-.72-.07-.97-.2-.25-.13-.45-.29-.59-.47-.14-.18-.25-.34-.33-.48h-.08v3.47h-1.27ZM179.15,51.06c0,.46.07.86.2,1.21.13.35.33.62.58.81.25.2.56.29.93.29s.7-.1.96-.3.45-.48.58-.83c.13-.35.2-.74.2-1.18s-.06-.82-.19-1.16c-.13-.34-.32-.61-.58-.81-.26-.2-.58-.3-.96-.3s-.68.09-.93.29c-.25.19-.45.46-.58.8-.13.34-.2.74-.2,1.19Z"/>
    <path d="M188.07,54.47c-.61,0-1.15-.14-1.61-.42-.46-.28-.81-.67-1.07-1.18-.25-.51-.38-1.1-.38-1.77s.13-1.27.38-1.78c.25-.51.61-.9,1.07-1.18.46-.28.99-.42,1.61-.42s1.15.14,1.61.42c.46.28.81.68,1.07,1.18.25.51.38,1.1.38,1.78s-.13,1.27-.38,1.77c-.25.5-.61.9-1.07,1.18-.46.28-.99.42-1.61.42ZM188.07,53.4c.4,0,.73-.11.99-.32s.46-.49.58-.84c.13-.35.19-.73.19-1.15s-.06-.8-.19-1.15c-.13-.35-.32-.63-.58-.85-.26-.21-.59-.32-.99-.32s-.73.11-1,.32c-.26.21-.46.5-.58.85-.13.35-.19.73-.19,1.15s.06.81.19,1.15c.13.35.32.63.58.84s.59.32,1,.32Z"/>
    <path d="M192.54,54.33v-6.55h1.23v1.04h.07c.12-.35.33-.63.63-.83s.65-.3,1.03-.3c.08,0,.17,0,.28,0s.2.01.26.02v1.22c-.05-.01-.14-.03-.27-.05-.13-.02-.26-.03-.39-.03-.3,0-.57.06-.8.19-.23.13-.42.3-.56.52-.14.22-.2.48-.2.76v4h-1.27Z"/>
    <path d="M200.59,47.79v1.02h-3.58v-1.02h3.58ZM197.97,46.22h1.27v6.19c0,.25.04.43.11.56.07.12.17.21.29.25.12.04.25.07.39.07.1,0,.19,0,.27-.02.08-.01.14-.03.18-.03l.23,1.05c-.07.03-.18.06-.32.09-.14.03-.31.05-.51.05-.33,0-.65-.05-.94-.18-.29-.12-.52-.32-.7-.58-.18-.26-.27-.59-.27-.98v-6.46Z"/>
  </g>
</svg>