<svg width="80" height="54" viewBox="0 0 80 54" fill="none" xmlns="http://www.w3.org/2000/svg">
<g opacity="0.6">
<path opacity="0.8" d="M75.845 24.18C58.545 3.94 20.455 3.94 3.155 24.18C1.615 25.89 1.615 28.59 3.155 30.29C11.835 40 25.095 45.58 39.505 45.58C53.915 45.58 67.165 40.01 75.855 30.29C77.395 28.58 77.395 25.88 75.855 24.18H75.845ZM27.055 40.27C18.705 38.13 11.355 33.84 5.935 27.78C5.655 27.48 5.655 26.99 5.935 26.69C11.355 20.63 18.705 16.34 27.055 14.2C19.725 20.72 19.725 33.75 27.055 40.27ZM39.495 38.29C33.415 38.29 28.495 33.37 28.495 27.29C28.495 21.21 33.415 16.29 39.495 16.29C45.575 16.29 50.495 21.21 50.495 27.29C50.495 33.37 45.575 38.29 39.495 38.29ZM73.045 27.78C67.625 33.84 60.275 38.13 51.925 40.27C59.255 33.75 59.255 20.72 51.925 14.2C60.275 16.34 67.625 20.63 73.045 26.69C73.325 26.99 73.325 27.48 73.045 27.78Z" fill="#7A7E70"/>
<path opacity="0.8" d="M39.4951 33.79C43.085 33.79 45.9951 30.8799 45.9951 27.29C45.9951 23.7002 43.085 20.79 39.4951 20.79C35.9053 20.79 32.9951 23.7002 32.9951 27.29C32.9951 30.8799 35.9053 33.79 39.4951 33.79Z" fill="#7A7E70"/>
</g>
</svg>
