<svg width="89" height="22" viewBox="0 0 89 22" fill="none" xmlns="http://www.w3.org/2000/svg">
<g clip-path="url(#clip0_6759_58529)">
<path opacity="0.4" d="M35.1237 12.8855L40.0344 18.8564H36.1562L31.7862 13.3719V18.8564H28.6069V3.14359H31.7862V12.3836L35.8225 7.85813H39.8744L35.122 12.8872L35.1237 12.8855ZM22.4082 7.54359C20.995 7.56422 19.6826 8.26891 18.8951 9.42906V7.85813H15.8914V18.8581H19.0707V13.7191C18.9855 12.9645 19.2219 12.21 19.7225 11.6359C20.2232 11.0602 20.9428 10.7164 21.7094 10.6872C23.5537 10.6872 23.8388 12.4781 23.8388 13.7208V18.8598H27.0181V13.0298C27.0181 9.57344 25.8587 7.54531 22.4725 7.54531H22.4082V7.54359ZM50.8569 13.6091C50.8691 13.8394 50.8691 14.0697 50.8569 14.3H42.5131V14.41C42.793 15.7644 44.0254 16.7166 45.4213 16.6564C46.5042 16.7028 47.5611 16.3109 48.3451 15.5719L50.4588 17.1428C49.1047 18.5092 47.2274 19.2466 45.2944 19.1692C43.6917 19.2689 42.1238 18.6777 40.9956 17.5484C39.8675 16.4175 39.2904 14.8603 39.4138 13.2773C39.3808 11.7167 40.0065 10.2111 41.1399 9.12313C42.2733 8.03516 43.8134 7.46281 45.39 7.54188C48.3781 7.54188 50.8569 9.63188 50.8569 13.6073V13.6091ZM47.9018 12.2564C47.8775 11.6273 47.5941 11.0361 47.1161 10.6202C46.6381 10.2042 46.0088 10.0014 45.3744 10.0564C43.9768 9.90687 42.7113 10.8797 42.5131 12.2564H47.9001H47.9018ZM3.17932 3.14359H0V18.8581H9.53621V15.7145H3.17932V3.14359ZM60.3931 3.14359H63.5724V18.8581H60.5687V17.7581C59.7951 18.7 58.6166 19.2242 57.3894 19.1727C55.8962 19.1348 54.4847 18.4886 53.4887 17.3886C52.4926 16.2886 52.0007 14.8294 52.1276 13.3581C51.9763 11.8834 52.4579 10.4139 53.4556 9.30875C54.4534 8.20359 55.8753 7.5625 57.3737 7.54359C58.4879 7.49547 59.5761 7.89078 60.3931 8.64359V3.14359ZM60.6312 13.3564C60.7321 12.6225 60.5078 11.88 60.0142 11.3231C59.5205 10.7662 58.8061 10.4466 58.0569 10.45C56.5359 10.56 55.3851 11.8525 55.4668 13.3564C55.3851 14.862 56.5376 16.1545 58.0569 16.2628C58.8061 16.2645 59.5205 15.9466 60.0142 15.3897C60.5078 14.8328 60.7338 14.0903 60.6312 13.3564ZM12.7138 2.82906C11.6534 2.84453 10.786 3.66781 10.7269 4.71453C10.7269 5.79906 11.6169 6.67906 12.7138 6.67906C13.8106 6.67906 14.7006 5.79906 14.7006 4.71453C14.6415 3.66781 13.7741 2.84453 12.7138 2.82906ZM11.125 18.8564H14.3043V7.85641H11.125V18.8564ZM89 1.57094V20.4273C89 21.2953 88.289 21.9983 87.4112 21.9983H68.3405C67.4627 21.9983 66.7517 21.2953 66.7517 20.4273V1.57094C66.7517 0.702969 67.4627 0 68.3405 0H87.4112C88.289 0 89 0.702969 89 1.57094ZM73.1069 7.85641H69.9276V18.8564H73.1069V7.85641ZM73.505 4.71453C73.505 3.63 72.615 2.75 71.5181 2.75C70.4212 2.75 69.5312 3.63 69.5312 4.71453C69.5312 5.79906 70.4212 6.67906 71.5181 6.67906C72.615 6.67906 73.505 5.79906 73.505 4.71453ZM85.8207 13.0264C85.8207 9.57 84.6612 7.54188 81.2751 7.54188C79.8393 7.54188 78.499 8.25 77.6994 9.42734V7.85641H74.6957V18.8564H77.875V13.7173C77.7898 12.9628 78.0262 12.2083 78.5269 11.6342C79.0275 11.0584 79.7471 10.7147 80.5137 10.6855C82.358 10.6855 82.6431 12.4764 82.6431 13.7191V18.8581H85.8224V13.0281L85.8207 13.0264Z" fill="white"/>
</g>
<defs>
<clipPath id="clip0_6759_58529">
<rect width="89" height="22" fill="white"/>
</clipPath>
</defs>
</svg>
