<?xml version="1.0" encoding="UTF-8"?>
<svg id="Layer_1" data-name="Layer 1" xmlns="http://www.w3.org/2000/svg" viewBox="0 0 155.81 155.91">
  <defs>
    <style>
      .cls-1 {
        fill: #fdfdfb;
      }
    </style>
  </defs>
  <circle class="cls-1" cx="77.95" cy="77.96" r="12.64"/>
  <circle class="cls-1" cx="53.87" cy="77.96" r="11.3"/>
  <circle class="cls-1" cx="29.79" cy="77.96" r="8.5"/>
  <circle class="cls-1" cx="5.7" cy="77.96" r="5.7"/>
  <circle class="cls-1" cx="101.94" cy="77.96" r="11.3"/>
  <circle class="cls-1" cx="126.02" cy="77.96" r="8.5"/>
  <circle class="cls-1" cx="150.11" cy="77.96" r="5.7"/>
  <circle class="cls-1" cx="77.91" cy="29.79" r="8.5"/>
  <circle class="cls-1" cx="53.82" cy="29.79" r="6.48"/>
  <circle class="cls-1" cx="29.74" cy="29.79" r="4.46"/>
  <circle class="cls-1" cx="77.91" cy="5.7" r="5.7"/>
  <circle class="cls-1" cx="77.91" cy="53.87" r="11.3"/>
  <circle class="cls-1" cx="53.82" cy="53.87" r="9.02"/>
  <circle class="cls-1" cx="29.74" cy="53.87" r="6.74"/>
  <circle class="cls-1" cx="5.7" cy="53.87" r="4.46"/>
  <circle class="cls-1" cx="5.7" cy="29.79" r="2.31"/>
  <circle class="cls-1" cx="53.82" cy="5.7" r="4.46"/>
  <circle class="cls-1" cx="29.79" cy="5.7" r="2.31"/>
  <circle class="cls-1" cx="101.99" cy="29.79" r="6.48"/>
  <circle class="cls-1" cx="126.07" cy="29.79" r="4.46"/>
  <circle class="cls-1" cx="101.99" cy="53.87" r="9.02"/>
  <circle class="cls-1" cx="126.07" cy="53.87" r="6.74"/>
  <circle class="cls-1" cx="150.15" cy="53.87" r="4.46"/>
  <circle class="cls-1" cx="150.15" cy="29.79" r="2.31"/>
  <circle class="cls-1" cx="101.99" cy="5.7" r="4.46"/>
  <circle class="cls-1" cx="126.02" cy="5.7" r="2.31"/>
  <circle class="cls-1" cx="77.91" cy="126.12" r="8.5"/>
  <circle class="cls-1" cx="101.99" cy="126.12" r="6.48"/>
  <circle class="cls-1" cx="126.07" cy="126.12" r="4.46"/>
  <circle class="cls-1" cx="77.91" cy="150.21" r="5.7"/>
  <circle class="cls-1" cx="77.91" cy="102.04" r="11.3"/>
  <circle class="cls-1" cx="101.99" cy="102.04" r="9.02"/>
  <circle class="cls-1" cx="126.07" cy="102.04" r="6.74"/>
  <circle class="cls-1" cx="150.15" cy="102.04" r="4.46"/>
  <circle class="cls-1" cx="150.15" cy="126.12" r="2.31"/>
  <circle class="cls-1" cx="101.99" cy="150.21" r="4.46"/>
  <circle class="cls-1" cx="126.07" cy="150.21" r="2.31"/>
  <circle class="cls-1" cx="53.82" cy="126.12" r="6.48"/>
  <circle class="cls-1" cx="29.74" cy="126.12" r="4.46"/>
  <circle class="cls-1" cx="29.74" cy="150.21" r="2.31"/>
  <circle class="cls-1" cx="53.82" cy="102.04" r="9.02"/>
  <circle class="cls-1" cx="29.74" cy="102.04" r="6.74"/>
  <circle class="cls-1" cx="5.7" cy="102.04" r="4.46"/>
  <circle class="cls-1" cx="5.7" cy="126.12" r="2.31"/>
  <circle class="cls-1" cx="53.82" cy="150.21" r="4.46"/>
</svg>