<svg width="56" height="56" viewBox="0 0 56 56" fill="none" xmlns="http://www.w3.org/2000/svg">
<path d="M28.0144 32.5432C30.5249 32.5432 32.56 30.5091 32.56 28C32.56 25.4908 30.5249 23.4567 28.0144 23.4567C25.5039 23.4567 23.4688 25.4908 23.4688 28C23.4688 30.5091 25.5039 32.5432 28.0144 32.5432Z" fill="#1AAC66"/>
<path d="M19.3594 32.0642C21.6052 32.0642 23.4257 30.2446 23.4257 28C23.4257 25.7553 21.6052 23.9357 19.3594 23.9357C17.1136 23.9357 15.293 25.7553 15.293 28C15.293 30.2446 17.1136 32.0642 19.3594 32.0642Z" fill="#178B53"/>
<path d="M10.7041 31.0482C12.3884 31.0482 13.7539 29.6835 13.7539 28C13.7539 26.3165 12.3884 24.9518 10.7041 24.9518C9.01974 24.9518 7.6543 26.3165 7.6543 28C7.6543 29.6835 9.01974 31.0482 10.7041 31.0482Z" fill="#155C3A"/>
<path d="M2.04772 30.0467C3.17864 30.0467 4.09544 29.1304 4.09544 28C4.09544 26.8697 3.17864 25.9534 2.04772 25.9534C0.916794 25.9534 0 26.8697 0 28C0 29.1304 0.916794 30.0467 2.04772 30.0467Z" fill="#142D21"/>
<path d="M36.6406 32.0642C38.8864 32.0642 40.707 30.2446 40.707 28C40.707 25.7553 38.8864 23.9357 36.6406 23.9357C34.3948 23.9357 32.5742 25.7553 32.5742 28C32.5742 30.2446 34.3948 32.0642 36.6406 32.0642Z" fill="#178B53"/>
<path d="M45.2959 31.0482C46.9802 31.0482 48.3457 29.6835 48.3457 28C48.3457 26.3165 46.9802 24.9518 45.2959 24.9518C43.6115 24.9518 42.2461 26.3165 42.2461 28C42.2461 29.6835 43.6115 31.0482 45.2959 31.0482Z" fill="#155C3A"/>
<path d="M53.952 30.0467C55.0829 30.0467 55.9997 29.1304 55.9997 28C55.9997 26.8697 55.0829 25.9534 53.952 25.9534C52.8211 25.9534 51.9043 26.8697 51.9043 28C51.9043 29.1304 52.8211 30.0467 53.952 30.0467Z" fill="#142D21"/>
<path d="M28.001 13.746C29.6853 13.746 31.0508 12.3812 31.0508 10.6977C31.0508 9.01427 29.6853 7.64954 28.001 7.64954C26.3166 7.64954 24.9512 9.01427 24.9512 10.6977C24.9512 12.3812 26.3166 13.746 28.001 13.746Z" fill="#155C3A"/>
<path d="M19.3451 13.0202C20.6285 13.0202 21.6688 11.9804 21.6688 10.6978C21.6688 9.4151 20.6285 8.37531 19.3451 8.37531C18.0618 8.37531 17.0215 9.4151 17.0215 10.6978C17.0215 11.9804 18.0618 13.0202 19.3451 13.0202Z" fill="#155C3A"/>
<path d="M10.6882 12.3089C11.5785 12.3089 12.3002 11.5876 12.3002 10.6977C12.3002 9.8079 11.5785 9.08655 10.6882 9.08655C9.7979 9.08655 9.07617 9.8079 9.07617 10.6977C9.07617 11.5876 9.7979 12.3089 10.6882 12.3089Z" fill="#142D21"/>
<path d="M28.0008 4.09331C29.1318 4.09331 30.0486 3.17699 30.0486 2.04666C30.0486 0.916319 29.1318 0 28.0008 0C26.8699 0 25.9531 0.916319 25.9531 2.04666C25.9531 3.17699 26.8699 4.09331 28.0008 4.09331Z" fill="#142D21"/>
<path d="M28 23.4131C30.2458 23.4131 32.0664 21.5935 32.0664 19.3488C32.0664 17.1042 30.2458 15.2845 28 15.2845C25.7542 15.2845 23.9336 17.1042 23.9336 19.3488C23.9336 21.5935 25.7542 23.4131 28 23.4131Z" fill="#178B53"/>
<path d="M19.3441 22.5858C21.1327 22.5858 22.5826 21.1365 22.5826 19.3488C22.5826 17.5612 21.1327 16.1119 19.3441 16.1119C17.5554 16.1119 16.1055 17.5612 16.1055 19.3488C16.1055 21.1365 17.5554 22.5858 19.3441 22.5858Z" fill="#155C3A"/>
<path d="M10.689 21.7729C12.0284 21.7729 13.1143 20.6876 13.1143 19.3489C13.1143 18.0101 12.0284 16.9248 10.689 16.9248C9.34952 16.9248 8.26367 18.0101 8.26367 19.3489C8.26367 20.6876 9.34952 21.7729 10.689 21.7729Z" fill="#155C3A"/>
<path d="M2.04758 20.9601C2.93788 20.9601 3.65961 20.2387 3.65961 19.3489C3.65961 18.459 2.93788 17.7377 2.04758 17.7377C1.15728 17.7377 0.435547 18.459 0.435547 19.3489C0.435547 20.2387 1.15728 20.9601 2.04758 20.9601Z" fill="#142D21"/>
<path d="M2.0485 11.5252C2.50569 11.5252 2.8763 11.1547 2.8763 10.6978C2.8763 10.2408 2.50569 9.87042 2.0485 9.87042C1.59132 9.87042 1.2207 10.2408 1.2207 10.6978C1.2207 11.1547 1.59132 11.5252 2.0485 11.5252Z" fill="#142D21"/>
<path d="M19.3445 3.65788C20.2348 3.65788 20.9565 2.93652 20.9565 2.04668C20.9565 1.15684 20.2348 0.435486 19.3445 0.435486C18.4542 0.435486 17.7324 1.15684 17.7324 2.04668C17.7324 2.93652 18.4542 3.65788 19.3445 3.65788Z" fill="#142D21"/>
<path d="M10.7028 2.87404C11.16 2.87404 11.5306 2.50362 11.5306 2.04667C11.5306 1.58973 11.16 1.2193 10.7028 1.2193C10.2456 1.2193 9.875 1.58973 9.875 2.04667C9.875 2.50362 10.2456 2.87404 10.7028 2.87404Z" fill="#142D21"/>
<path d="M36.6557 13.0202C37.939 13.0202 38.9793 11.9804 38.9793 10.6978C38.9793 9.4151 37.939 8.37531 36.6557 8.37531C35.3724 8.37531 34.332 9.4151 34.332 10.6978C34.332 11.9804 35.3724 13.0202 36.6557 13.0202Z" fill="#155C3A"/>
<path d="M45.3113 12.3089C46.2016 12.3089 46.9233 11.5876 46.9233 10.6977C46.9233 9.8079 46.2016 9.08655 45.3113 9.08655C44.421 9.08655 43.6992 9.8079 43.6992 10.6977C43.6992 11.5876 44.421 12.3089 45.3113 12.3089Z" fill="#142D21"/>
<path d="M36.6566 22.5858C38.4452 22.5858 39.8951 21.1365 39.8951 19.3488C39.8951 17.5612 38.4452 16.1119 36.6566 16.1119C34.8679 16.1119 33.418 17.5612 33.418 19.3488C33.418 21.1365 34.8679 22.5858 36.6566 22.5858Z" fill="#155C3A"/>
<path d="M45.312 21.7729C46.6515 21.7729 47.7373 20.6876 47.7373 19.3489C47.7373 18.0101 46.6515 16.9248 45.312 16.9248C43.9726 16.9248 42.8867 18.0101 42.8867 19.3489C42.8867 20.6876 43.9726 21.7729 45.312 21.7729Z" fill="#155C3A"/>
<path d="M53.9675 20.9601C54.8578 20.9601 55.5795 20.2387 55.5795 19.3489C55.5795 18.459 54.8578 17.7377 53.9675 17.7377C53.0772 17.7377 52.3555 18.459 52.3555 19.3489C52.3555 20.2387 53.0772 20.9601 53.9675 20.9601Z" fill="#142D21"/>
<path d="M53.9665 11.5252C54.4237 11.5252 54.7943 11.1547 54.7943 10.6978C54.7943 10.2408 54.4237 9.87042 53.9665 9.87042C53.5093 9.87042 53.1387 10.2408 53.1387 10.6978C53.1387 11.1547 53.5093 11.5252 53.9665 11.5252Z" fill="#142D21"/>
<path d="M36.655 3.65788C37.5453 3.65788 38.267 2.93652 38.267 2.04668C38.267 1.15684 37.5453 0.435486 36.655 0.435486C35.7647 0.435486 35.043 1.15684 35.043 2.04668C35.043 2.93652 35.7647 3.65788 36.655 3.65788Z" fill="#142D21"/>
<path d="M45.2966 2.87404C45.7537 2.87404 46.1244 2.50362 46.1244 2.04667C46.1244 1.58973 45.7537 1.2193 45.2966 1.2193C44.8394 1.2193 44.4688 1.58973 44.4688 2.04667C44.4688 2.50362 44.8394 2.87404 45.2966 2.87404Z" fill="#142D21"/>
<path d="M28.001 48.3505C29.6853 48.3505 31.0508 46.9857 31.0508 45.3022C31.0508 43.6188 29.6853 42.254 28.001 42.254C26.3166 42.254 24.9512 43.6188 24.9512 45.3022C24.9512 46.9857 26.3166 48.3505 28.001 48.3505Z" fill="#155C3A"/>
<path d="M36.6557 47.6246C37.939 47.6246 38.9793 46.5848 38.9793 45.3022C38.9793 44.0195 37.939 42.9797 36.6557 42.9797C35.3724 42.9797 34.332 44.0195 34.332 45.3022C34.332 46.5848 35.3724 47.6246 36.6557 47.6246Z" fill="#155C3A"/>
<path d="M45.3113 46.9134C46.2016 46.9134 46.9233 46.1921 46.9233 45.3022C46.9233 44.4124 46.2016 43.691 45.3113 43.691C44.421 43.691 43.6992 44.4124 43.6992 45.3022C43.6992 46.1921 44.421 46.9134 45.3113 46.9134Z" fill="#142D21"/>
<path d="M28.0008 56.0001C29.1318 56.0001 30.0486 55.0837 30.0486 53.9534C30.0486 52.8231 29.1318 51.9067 28.0008 51.9067C26.8699 51.9067 25.9531 52.8231 25.9531 53.9534C25.9531 55.0837 26.8699 56.0001 28.0008 56.0001Z" fill="#142D21"/>
<path d="M28 40.7154C30.2458 40.7154 32.0664 38.8957 32.0664 36.6511C32.0664 34.4064 30.2458 32.5868 28 32.5868C25.7542 32.5868 23.9336 34.4064 23.9336 36.6511C23.9336 38.8957 25.7542 40.7154 28 40.7154Z" fill="#178B53"/>
<path d="M36.6566 39.888C38.4452 39.888 39.8951 38.4388 39.8951 36.6511C39.8951 34.8634 38.4452 33.4142 36.6566 33.4142C34.8679 33.4142 33.418 34.8634 33.418 36.6511C33.418 38.4388 34.8679 39.888 36.6566 39.888Z" fill="#155C3A"/>
<path d="M45.312 39.0752C46.6515 39.0752 47.7373 37.9899 47.7373 36.6511C47.7373 35.3123 46.6515 34.2271 45.312 34.2271C43.9726 34.2271 42.8867 35.3123 42.8867 36.6511C42.8867 37.9899 43.9726 39.0752 45.312 39.0752Z" fill="#155C3A"/>
<path d="M53.9675 38.2623C54.8578 38.2623 55.5795 37.541 55.5795 36.6511C55.5795 35.7613 54.8578 35.0399 53.9675 35.0399C53.0772 35.0399 52.3555 35.7613 52.3555 36.6511C52.3555 37.541 53.0772 38.2623 53.9675 38.2623Z" fill="#142D21"/>
<path d="M53.9665 46.1296C54.4237 46.1296 54.7943 45.7592 54.7943 45.3022C54.7943 44.8453 54.4237 44.4749 53.9665 44.4749C53.5093 44.4749 53.1387 44.8453 53.1387 45.3022C53.1387 45.7592 53.5093 46.1296 53.9665 46.1296Z" fill="#142D21"/>
<path d="M36.655 55.5791C37.5453 55.5791 38.267 54.8577 38.267 53.9679C38.267 53.078 37.5453 52.3567 36.655 52.3567C35.7647 52.3567 35.043 53.078 35.043 53.9679C35.043 54.8577 35.7647 55.5791 36.655 55.5791Z" fill="#142D21"/>
<path d="M45.3122 54.7952C45.7694 54.7952 46.14 54.4248 46.14 53.9679C46.14 53.5109 45.7694 53.1405 45.3122 53.1405C44.855 53.1405 44.4844 53.5109 44.4844 53.9679C44.4844 54.4248 44.855 54.7952 45.3122 54.7952Z" fill="#142D21"/>
<path d="M19.3451 47.6246C20.6285 47.6246 21.6688 46.5848 21.6688 45.3022C21.6688 44.0195 20.6285 42.9797 19.3451 42.9797C18.0618 42.9797 17.0215 44.0195 17.0215 45.3022C17.0215 46.5848 18.0618 47.6246 19.3451 47.6246Z" fill="#155C3A"/>
<path d="M10.6882 46.9134C11.5785 46.9134 12.3002 46.1921 12.3002 45.3022C12.3002 44.4124 11.5785 43.691 10.6882 43.691C9.7979 43.691 9.07617 44.4124 9.07617 45.3022C9.07617 46.1921 9.7979 46.9134 10.6882 46.9134Z" fill="#142D21"/>
<path d="M10.6891 54.7807C11.1463 54.7807 11.5169 54.4103 11.5169 53.9534C11.5169 53.4964 11.1463 53.126 10.6891 53.126C10.2319 53.126 9.86133 53.4964 9.86133 53.9534C9.86133 54.4103 10.2319 54.7807 10.6891 54.7807Z" fill="#142D21"/>
<path d="M19.3441 39.888C21.1327 39.888 22.5826 38.4388 22.5826 36.6511C22.5826 34.8634 21.1327 33.4142 19.3441 33.4142C17.5554 33.4142 16.1055 34.8634 16.1055 36.6511C16.1055 38.4388 17.5554 39.888 19.3441 39.888Z" fill="#155C3A"/>
<path d="M10.689 39.0752C12.0284 39.0752 13.1143 37.9899 13.1143 36.6511C13.1143 35.3123 12.0284 34.2271 10.689 34.2271C9.34952 34.2271 8.26367 35.3123 8.26367 36.6511C8.26367 37.9899 9.34952 39.0752 10.689 39.0752Z" fill="#155C3A"/>
<path d="M2.04758 38.2623C2.93788 38.2623 3.65961 37.541 3.65961 36.6511C3.65961 35.7613 2.93788 35.0399 2.04758 35.0399C1.15728 35.0399 0.435547 35.7613 0.435547 36.6511C0.435547 37.541 1.15728 38.2623 2.04758 38.2623Z" fill="#142D21"/>
<path d="M2.0485 46.1296C2.50569 46.1296 2.8763 45.7592 2.8763 45.3022C2.8763 44.8453 2.50569 44.4749 2.0485 44.4749C1.59132 44.4749 1.2207 44.8453 1.2207 45.3022C1.2207 45.7592 1.59132 46.1296 2.0485 46.1296Z" fill="#142D21"/>
<path d="M19.3445 55.5791C20.2348 55.5791 20.9565 54.8577 20.9565 53.9679C20.9565 53.078 20.2348 52.3567 19.3445 52.3567C18.4542 52.3567 17.7324 53.078 17.7324 53.9679C17.7324 54.8577 18.4542 55.5791 19.3445 55.5791Z" fill="#142D21"/>
</svg>
