<svg width="36" height="36" viewBox="0 0 36 36" fill="none" xmlns="http://www.w3.org/2000/svg">
<path d="M5.40039 8.54995C5.40039 7.80183 6.00227 7.19995 6.75039 7.19995H29.2504C29.9985 7.19995 30.6004 7.80183 30.6004 8.54995C30.6004 9.29808 29.9985 9.89995 29.2504 9.89995H6.75039C6.00227 9.89995 5.40039 9.29808 5.40039 8.54995ZM5.40039 18C5.40039 17.2518 6.00227 16.65 6.75039 16.65H29.2504C29.9985 16.65 30.6004 17.2518 30.6004 18C30.6004 18.7481 29.9985 19.35 29.2504 19.35H6.75039C6.00227 19.35 5.40039 18.7481 5.40039 18ZM30.6004 27.45C30.6004 28.1981 29.9985 28.8 29.2504 28.8H6.75039C6.00227 28.8 5.40039 28.1981 5.40039 27.45C5.40039 26.7018 6.00227 26.1 6.75039 26.1H29.2504C29.9985 26.1 30.6004 26.7018 30.6004 27.45Z" fill="#142D21"/>
</svg>
