<svg width="80" height="54" viewBox="0 0 80 54" fill="none" xmlns="http://www.w3.org/2000/svg">
<g opacity="0.6">
<path d="M48.97 38.61H31.15C32.88 32.62 33.6 26.57 33.62 20.61H46.51C46.52 26.57 47.24 32.62 48.98 38.61H48.97ZM50.77 16.67V16.48C50.77 15.05 49.61 13.9 48.19 13.9H31.92C30.49 13.9 29.34 15.06 29.34 16.48V16.67C29.34 18.1 30.5 19.25 31.92 19.25H48.19C49.62 19.25 50.77 18.09 50.77 16.67ZM50.43 39.97H29.68C28.38 39.97 27.31 41.03 27.31 42.34V42.92H52.81V42.34C52.81 41.03 51.74 39.97 50.44 39.97H50.43ZM55.11 48.51V46.22C55.11 45.15 54.24 44.29 53.18 44.29H26.93C25.86 44.29 25 45.16 25 46.22V48.51C25 49.58 25.87 50.44 26.93 50.44H53.18C54.25 50.44 55.12 49.57 55.12 48.51H55.11ZM48.84 3.01H46.96C46.39 3.01 45.94 3.46 45.94 4.03V5.93C45.94 6.5 45.48 6.96 44.91 6.96H43.04C42.47 6.96 42.01 6.5 42.01 5.93V4.03C42.01 3.46 41.56 3.01 40.99 3.01H39.13C38.56 3.01 38.1 3.46 38.1 4.03V5.93C38.1 6.5 37.65 6.96 37.08 6.96H35.2C34.64 6.96 34.18 6.5 34.18 5.93V4.03C34.18 3.46 33.73 3.01 33.16 3.01H31.28C30.72 3.01 30.26 3.46 30.26 4.03V9.57C30.26 10.59 30.68 11.58 31.41 12.29L31.7 12.56C31.77 12.55 31.84 12.55 31.9 12.55H48.18C48.26 12.55 48.33 12.55 48.41 12.56L48.7 12.29C49.43 11.57 49.85 10.58 49.85 9.57V4.02C49.85 3.45 49.39 3 48.83 3L48.84 3.01Z" fill="#7A7E70"/>
</g>
</svg>
