<svg width="80" height="54" viewBox="0 0 80 54" fill="none" xmlns="http://www.w3.org/2000/svg">
<g opacity="0.6">
<path d="M39.8073 15.2173C33.3873 15.2173 28.2173 20.4373 28.2173 26.8073C28.2173 33.1773 33.4373 38.3973 39.8073 38.3973C46.1773 38.3973 51.3973 33.1773 51.3973 26.8073C51.3973 20.4373 46.2273 15.2173 39.8073 15.2173ZM45.5973 24.9273L39.4373 31.0873C39.1273 31.3973 38.7073 31.6073 38.2373 31.6073C37.7673 31.6073 37.3473 31.4473 37.0373 31.0873L33.9573 28.0073C33.2773 27.3273 33.2773 26.2873 33.9573 25.6073C34.6373 24.9273 35.6773 24.9273 36.3573 25.6073L38.2373 27.4873L43.1973 22.5273C43.8773 21.8473 44.9173 21.8473 45.5973 22.5273C46.2773 23.2073 46.2773 24.2473 45.5973 24.9273Z" fill="#7A7E70"/>
<path d="M64.1875 27.7975C64.7575 27.2775 64.7575 26.3875 64.1875 25.8675L60.1175 22.1075C59.7475 21.7375 59.5975 21.2175 59.7475 20.7475L61.4175 15.4775C61.6275 14.7475 61.2075 13.9675 60.4275 13.8075L55.0475 12.6075C54.5275 12.5075 54.1575 12.0875 54.0575 11.6175L52.8575 6.1875C52.6975 5.4075 51.9175 4.9875 51.1875 5.1975L45.9175 6.8675C45.4475 7.0275 44.8775 6.8675 44.5575 6.4975L40.8475 2.4275C40.3275 1.8575 39.4375 1.8575 38.9175 2.4275L35.1075 6.4975C34.7375 6.8675 34.2175 7.0175 33.7475 6.8675L28.4775 5.1975C27.7475 4.9875 26.9675 5.4075 26.8075 6.1875L25.6075 11.5675C25.5075 12.0875 25.0875 12.4575 24.6175 12.5575L19.1875 13.7575C18.4075 13.9175 17.9875 14.6975 18.1975 15.4275L19.8675 20.6975C20.0275 21.1675 19.8675 21.7375 19.4975 22.0575L15.4275 25.7675C14.8575 26.2875 14.8575 27.1775 15.4275 27.6975L19.4975 31.4075C19.8675 31.7775 20.0175 32.2975 19.8675 32.7675L18.1975 38.1475C17.9875 38.8775 18.4075 39.6575 19.1875 39.8175L24.5675 41.0175C25.0875 41.1175 25.4575 41.5375 25.5575 42.0075L26.7575 47.4375C26.9175 48.2175 27.6975 48.6375 28.4275 48.4275L33.6975 46.7575C34.1675 46.5975 34.7375 46.7575 35.0575 47.1275L38.7675 51.1975C39.2875 51.7675 40.1775 51.7675 40.6975 51.1975L44.4075 47.1275C44.7775 46.7575 45.2975 46.6075 45.7675 46.7575L51.0375 48.4275C51.7675 48.6375 52.5475 48.2175 52.7075 47.4375L53.9075 42.0575C54.0075 41.5375 54.4275 41.1675 54.8975 41.0675L60.4275 39.8675C61.2075 39.7075 61.6275 38.9275 61.4175 38.1975L59.7475 32.9275C59.5875 32.4575 59.7475 31.8875 60.1175 31.5675L64.1875 27.8075V27.7975ZM39.8075 41.8475C31.5075 41.8475 24.7675 35.1075 24.7675 26.8075C24.7675 18.5075 31.5075 11.7675 39.8075 11.7675C48.1075 11.7675 54.8475 18.5075 54.8475 26.8075C54.8475 35.1075 48.1075 41.8475 39.8075 41.8475Z" fill="#7A7E70"/>
</g>
</svg>
