<svg width="80" height="54" viewBox="0 0 80 54" fill="none" xmlns="http://www.w3.org/2000/svg">
<g opacity="0.6">
<path d="M40.4 2C36.64 6.42 29.6 14.75 29.27 15.14H37.31C37.31 17.35 37.31 19.69 37.31 21.87C35.15 24.48 30.9399 27.15 27.0099 27.15H20V33.3H27.0099C30.9099 33.3 34.49 31.93 37.31 29.64C37.31 31.92 37.31 33.96 37.31 36.42C37.31 42.18 32.7699 46.72 27.0099 46.72H20V52.87H27.0099C32.5399 52.87 37.42 50.11 40.4 45.91C43.38 50.11 48.26 52.87 53.79 52.87H60.8V46.72H53.79C48.03 46.72 43.49 42.18 43.49 36.42C43.49 34.27 43.49 31.92 43.49 29.64C46.31 31.93 49.88 33.3 53.79 33.3H60.8V27.15H53.79C49.87 27.15 45.65 24.48 43.49 21.87C43.49 19.61 43.49 17.37 43.49 15.14H51.53C51.2 14.75 44.16 6.42 40.4 2Z" fill="#7A7E70"/>
</g>
</svg>
